<?xml version="1.0" standalone="no"?>
<!DOCTYPE svg PUBLIC "-//W3C//DTD SVG 20010904//EN"
 "http://www.w3.org/TR/2001/REC-SVG-20010904/DTD/svg10.dtd">
<svg version="1.0" xmlns="http://www.w3.org/2000/svg"
 width="928.000000pt" height="928.000000pt" viewBox="0 0 928.000000 928.000000"
 preserveAspectRatio="xMidYMid meet">
<metadata>
Created by potrace 1.14, written by Peter Selinger 2001-2017
</metadata>
<g transform="translate(0.000000,928.000000) scale(0.100000,-0.100000)"
fill="#000000" stroke="none">
<path d="M2868 7825 c-2 -1 -25 -5 -53 -8 -52 -5 -99 -15 -125 -24 -8 -3 -24
-8 -35 -10 -60 -10 -246 -106 -322 -166 -9 -6 -489 -485 -1068 -1062 -921
-919 -1059 -1061 -1106 -1135 -30 -47 -60 -96 -66 -110 -18 -38 -44 -103 -48
-120 -2 -8 -12 -44 -21 -80 -13 -47 -18 -100 -18 -195 0 -110 7 -223 15 -232
1 -2 2 -6 4 -10 1 -5 5 -15 8 -23 4 -8 8 -26 11 -40 12 -67 71 -185 143 -285
32 -44 2257 -2282 2826 -2844 l55 -53 766 766 c421 421 768 766 770 766 2 0
224 -219 494 -488 269 -268 496 -492 503 -497 70 -52 94 -68 159 -102 41 -22
93 -46 115 -52 22 -7 47 -15 55 -18 86 -33 303 -49 420 -30 72 11 81 14 155
37 88 28 189 80 268 138 56 41 2127 2104 2127 2119 0 3 8 13 18 22 50 45 129
192 172 319 63 188 59 448 -10 627 -43 113 -121 245 -186 315 -22 23 -402 407
-847 853 l-807 810 -341 -341 -340 -340 -579 580 -580 580 -429 -430 -430
-429 -478 476 c-456 455 -545 541 -558 541 -4 0 -25 13 -48 28 -23 15 -64 38
-92 51 -27 13 -57 27 -66 31 -22 11 -157 47 -209 55 -44 7 -216 15 -222 10z"/>
</g>
</svg>
