<svg width="129" height="35" viewBox="0 0 129 35" fill="none" xmlns="http://www.w3.org/2000/svg">
<path d="M7.35288 0.287999C9.88087 0.287999 11.6569 0.895999 12.6809 2.112C13.7049 3.328 14.2169 5.104 14.2169 7.44V9.36C14.2169 11.184 13.8969 12.656 13.2569 13.776C12.6489 14.896 11.4969 15.632 9.80087 15.984C11.6249 16.336 12.9209 17.152 13.6889 18.432C14.4569 19.68 14.8409 21.264 14.8409 23.184V26.112C14.8409 28.544 14.2649 30.448 13.1129 31.824C11.9609 33.2 10.0889 33.888 7.49688 33.888H0.296875V0.287999H7.35288ZM6.24888 15.12C7.24088 15.12 8.08888 15.04 8.79288 14.88C9.52888 14.72 10.1369 14.448 10.6169 14.064C11.0969 13.648 11.4489 13.104 11.6729 12.432C11.8969 11.728 12.0089 10.848 12.0089 9.792V7.632C12.0089 5.872 11.6729 4.544 11.0009 3.648C10.3289 2.752 9.09688 2.304 7.30487 2.304H2.50487V15.12H6.24888ZM7.49688 31.872C9.35287 31.872 10.6649 31.376 11.4329 30.384C12.2329 29.392 12.6329 27.952 12.6329 26.064V23.04C12.6329 20.864 12.1369 19.344 11.1449 18.48C10.1529 17.584 8.66488 17.136 6.68088 17.136H2.50487V31.872H7.49688Z" fill="white"/>
<path d="M20.5495 25.776C20.5495 26.672 20.6295 27.52 20.7895 28.32C20.9815 29.088 21.2695 29.76 21.6535 30.336C22.0695 30.912 22.5975 31.36 23.2375 31.68C23.8775 32 24.6615 32.16 25.5895 32.16C26.5175 32.16 27.3015 32 27.9415 31.68C28.5815 31.36 29.0935 30.912 29.4775 30.336C29.8935 29.76 30.1815 29.088 30.3415 28.32C30.5335 27.52 30.6295 26.672 30.6295 25.776V0.287999H32.6935V25.68C32.6935 26.896 32.5655 28.016 32.3095 29.04C32.0535 30.064 31.6375 30.96 31.0615 31.728C30.4855 32.496 29.7335 33.104 28.8055 33.552C27.9095 33.968 26.8215 34.176 25.5415 34.176C24.2615 34.176 23.1575 33.968 22.2295 33.552C21.3335 33.104 20.5975 32.496 20.0215 31.728C19.4455 30.96 19.0135 30.064 18.7255 29.04C18.4695 28.016 18.3415 26.896 18.3415 25.68V0.287999H20.5495V25.776Z" fill="white"/>
<path d="M43.8764 0.287999C45.1564 0.287999 46.2604 0.495999 47.1884 0.912C48.1484 1.296 48.9324 1.856 49.5404 2.592C50.1484 3.328 50.5964 4.208 50.8844 5.232C51.1724 6.256 51.3164 7.392 51.3164 8.64V25.536C51.3164 26.784 51.1724 27.92 50.8844 28.944C50.5964 29.968 50.1484 30.848 49.5404 31.584C48.9324 32.32 48.1484 32.896 47.1884 33.312C46.2604 33.696 45.1564 33.888 43.8764 33.888H36.4844V0.287999H43.8764ZM43.8284 31.872C45.7164 31.872 47.0604 31.296 47.8604 30.144C48.6924 28.992 49.1084 27.488 49.1084 25.632V8.544C49.1084 6.688 48.6924 5.184 47.8604 4.032C47.0284 2.88 45.6844 2.304 43.8284 2.304H38.6924V31.872H43.8284Z" fill="white"/>
<path d="M57.0651 25.776C57.0651 26.672 57.1451 27.52 57.3051 28.32C57.4971 29.088 57.7851 29.76 58.1691 30.336C58.5851 30.912 59.1131 31.36 59.7531 31.68C60.3931 32 61.1771 32.16 62.1051 32.16C63.0331 32.16 63.8171 32 64.4571 31.68C65.0971 31.36 65.6091 30.912 65.9931 30.336C66.4091 29.76 66.6971 29.088 66.8571 28.32C67.0491 27.52 67.1451 26.672 67.1451 25.776V0.287999H69.2091V25.68C69.2091 26.896 69.0811 28.016 68.8251 29.04C68.5691 30.064 68.1531 30.96 67.5771 31.728C67.0011 32.496 66.2491 33.104 65.3211 33.552C64.4251 33.968 63.3371 34.176 62.0571 34.176C60.7771 34.176 59.6731 33.968 58.7451 33.552C57.8491 33.104 57.1131 32.496 56.5371 31.728C55.9611 30.96 55.5291 30.064 55.2411 29.04C54.9851 28.016 54.8571 26.896 54.8571 25.68V0.287999H57.0651V25.776Z" fill="white"/>
<path d="M84.376 15.84V17.856H75.208V31.872H86.248V33.888H73V0.287999H86.248V2.304H75.208V15.84H84.376Z" fill="white"/>
<path d="M101.108 33.84H98.9001L91.7961 4.128V33.888H89.8281V0.287999H92.9961L100.052 30L107.06 0.287999H110.228V33.888H108.116V4.032L101.108 33.84Z" fill="white"/>
<path d="M113.919 8.496C113.919 7.28 114.062 6.16 114.351 5.136C114.639 4.08 115.071 3.184 115.646 2.448C116.255 1.68 117.022 1.088 117.951 0.672C118.879 0.224 119.982 0 121.262 0C122.542 0 123.646 0.224 124.575 0.672C125.535 1.088 126.318 1.68 126.926 2.448C127.535 3.184 127.982 4.08 128.271 5.136C128.559 6.16 128.702 7.28 128.702 8.496V25.68C128.702 26.896 128.559 28.032 128.271 29.088C127.982 30.112 127.535 31.008 126.926 31.776C126.318 32.512 125.535 33.104 124.575 33.552C123.646 33.968 122.542 34.176 121.262 34.176C119.982 34.176 118.879 33.968 117.951 33.552C117.022 33.104 116.255 32.512 115.646 31.776C115.071 31.008 114.639 30.112 114.351 29.088C114.062 28.032 113.919 26.896 113.919 25.68V8.496ZM116.127 25.824C116.127 27.648 116.511 29.168 117.279 30.384C118.079 31.568 119.406 32.16 121.262 32.16C123.118 32.16 124.446 31.568 125.246 30.384C126.078 29.168 126.494 27.648 126.494 25.824V8.352C126.494 6.528 126.078 5.024 125.246 3.84C124.446 2.624 123.118 2.016 121.262 2.016C119.406 2.016 118.079 2.624 117.279 3.84C116.511 5.024 116.127 6.528 116.127 8.352V25.824Z" fill="white"/>
</svg>
