<svg width="143" height="27" viewBox="0 0 143 27" fill="none" xmlns="http://www.w3.org/2000/svg">
<path d="M127.826 7.01043C130.871 7.01043 133.21 7.72627 134.842 9.15727C136.475 10.5883 137.291 12.7478 137.291 15.6338V26.7112H131.955V24.2938C130.883 26.098 128.885 26.9998 125.962 26.9998C124.452 26.9998 123.142 26.7472 122.034 26.242C120.925 25.7368 120.078 25.039 119.494 24.1492C118.909 23.2587 118.617 22.2489 118.617 21.1179C118.617 19.3136 119.305 17.8946 120.681 16.8602C122.058 15.8257 124.184 15.3085 127.059 15.3085H131.589C131.589 14.0821 131.212 13.1377 130.457 12.4758C129.701 11.8147 128.569 11.4834 127.058 11.4834C126.01 11.4834 124.981 11.646 123.97 11.9706C122.959 12.2952 122.1 12.7344 121.393 13.2877L119.346 9.35456C120.418 8.60873 121.703 8.03153 123.201 7.62296C124.7 7.21439 126.241 7.00977 127.825 7.00977L127.826 7.01043ZM127.387 23.2114C128.362 23.2114 129.227 22.9888 129.982 22.5442C130.738 22.0996 131.274 21.4438 131.59 20.578V18.5931H127.68C125.341 18.5931 124.172 19.3509 124.172 20.8666C124.172 21.5877 124.458 22.1596 125.031 22.5809C125.603 23.0014 126.389 23.212 127.388 23.212L127.387 23.2114Z" fill="white"/>
<path d="M109.664 7.05594C111.482 7.05594 113.136 7.46955 114.627 8.2981C116.117 9.12598 117.287 10.2903 118.135 11.7898C118.984 13.2893 119.407 15.0355 119.407 17.0278C119.407 19.0193 118.983 20.7655 118.135 22.2657C117.287 23.7652 116.117 24.9295 114.627 25.7574C113.136 26.586 111.482 26.9996 109.664 26.9996C106.974 26.9996 104.926 26.1597 103.52 24.48V26.7116H98.1035V0H103.775V9.39595C105.204 7.83595 107.168 7.05594 109.664 7.05594ZM108.682 22.3914C110.137 22.3914 111.33 21.9053 112.263 20.9331C113.196 19.9609 113.663 18.6589 113.663 17.0271C113.663 15.3946 113.196 14.0933 112.263 13.1211C111.331 12.1489 110.137 11.6628 108.682 11.6628C107.228 11.6628 106.034 12.1489 105.101 13.1211C104.168 14.0933 103.701 15.3953 103.701 17.0271C103.701 18.6589 104.167 19.9609 105.101 20.9331C106.034 21.9053 107.228 22.3914 108.682 22.3914Z" fill="white"/>
<path d="M137.027 0.259277H142.814V26.9992H137.027V0.259277Z" fill="white"/>
<path d="M87.3367 26.9998C85.2688 26.9998 83.4138 26.5726 81.7718 25.7194C80.1298 24.8656 78.8465 23.6805 77.9223 22.1648C76.9982 20.6491 76.5352 18.9294 76.5352 17.0051C76.5352 15.0802 76.9976 13.3605 77.9223 11.8448C78.8465 10.3291 80.1298 9.14468 81.7718 8.29018C83.4138 7.43635 85.2688 7.00977 87.3367 7.00977C89.4047 7.00977 91.2529 7.43702 92.8835 8.29018C94.5133 9.14401 95.7906 10.3291 96.7147 11.8448C97.6389 13.3605 98.1019 15.0802 98.1019 17.0051C98.1019 18.9294 97.6395 20.6497 96.7147 22.1648C95.7906 23.6805 94.5133 24.8649 92.8835 25.7194C91.2536 26.5733 89.4047 26.9998 87.3367 26.9998ZM87.3367 22.3814C88.796 22.3814 89.9945 21.8942 90.9307 20.9197C91.8677 19.9452 92.3355 18.6401 92.3355 17.0045C92.3355 15.3681 91.8677 14.0637 90.9307 13.0892C89.9945 12.1148 88.796 11.6275 87.3367 11.6275C85.8768 11.6275 84.6729 12.1148 83.7245 13.0892C82.7755 14.0637 82.3016 15.3688 82.3016 17.0045C82.3016 18.6401 82.7755 19.9452 83.7245 20.9197C84.6729 21.8942 85.8774 22.3814 87.3367 22.3814Z" fill="white"/>
<path d="M71.0137 0.259277H76.7999V26.9992H71.0137V0.259277Z" fill="white"/>
<path d="M36.8406 26.9998C34.7727 26.9998 32.9177 26.5726 31.2757 25.7194C29.6337 24.8656 28.3504 23.6805 27.4262 22.1648C26.5021 20.6491 26.0391 18.9294 26.0391 17.0051C26.0391 15.0802 26.5015 13.3605 27.4262 11.8448C28.3504 10.3291 29.6337 9.14468 31.2757 8.29018C32.9177 7.43635 34.7727 7.00977 36.8406 7.00977C38.9086 7.00977 40.7568 7.43702 42.3874 8.29018C44.0172 9.14401 45.2945 10.3291 46.2186 11.8448C47.1428 13.3605 47.6058 15.0802 47.6058 17.0051C47.6058 18.9294 47.1434 20.6497 46.2186 22.1648C45.2945 23.6805 44.0172 24.8649 42.3874 25.7194C40.7575 26.5733 38.9086 26.9998 36.8406 26.9998ZM36.8406 22.3814C38.3 22.3814 39.4984 21.8942 40.4347 20.9197C41.3716 19.9452 41.8394 18.6401 41.8394 17.0045C41.8394 15.3681 41.3716 14.0637 40.4347 13.0892C39.4984 12.1148 38.3 11.6275 36.8406 11.6275C35.3807 11.6275 34.1768 12.1148 33.2284 13.0892C32.2794 14.0637 31.8055 15.3688 31.8055 17.0045C31.8055 18.6401 32.2794 19.9452 33.2284 20.9197C34.1768 21.8942 35.3813 22.3814 36.8406 22.3814Z" fill="white"/>
<path d="M71.1278 17.481L71.1715 23.555C68.0359 25.9378 65.2883 26.9702 61.2162 26.9996C58.6439 27.0176 56.3286 26.489 54.2677 25.4146C52.2075 24.3395 50.5864 22.8405 49.4042 20.9156C48.2228 18.9914 47.6233 16.8112 47.6059 14.3751C47.5884 11.9383 48.157 9.75009 49.3103 7.80919C50.4649 5.86829 52.076 4.34597 54.1442 3.24221C56.2125 2.13779 58.5445 1.57725 61.1397 1.55859C63.3107 1.54326 65.2829 1.89185 67.0578 2.60569C68.8327 3.3202 70.3263 4.36396 71.5393 5.73765L67.8828 9.13623C66.1005 7.29797 63.9585 6.38818 61.4579 6.40617C59.877 6.4175 58.476 6.75476 57.2536 7.41928C56.0312 8.0838 55.0827 9.01625 54.4067 10.2153C53.7307 11.4144 53.3984 12.7874 53.4098 14.3337C53.4206 15.8561 53.773 17.2124 54.4658 18.4022C55.1585 19.5919 56.1151 20.5163 57.3342 21.1755C58.5539 21.8347 59.9421 22.1586 61.5002 22.1473C63.1516 22.1353 64.5975 21.5275 65.9132 20.8156L65.8898 17.517L62.4105 17.5417L62.4125 12.4348L71.2809 12.3728L71.2789 17.4797L71.1278 17.481Z" fill="white"/>
<path fill-rule="evenodd" clip-rule="evenodd" d="M22.2081 23.6807C18.6532 26.7796 13.6018 27.7968 9.0455 26.3555C6.85465 25.6625 4.9452 24.399 3.31852 22.5663C1.69183 20.7329 0.670952 18.6951 0.257228 16.4523C-0.156496 14.2095 -0.116198 11.8376 0.71125 9.63205C1.53937 7.42653 2.83158 5.23299 4.78804 3.52742C7.59411 1.08091 11.6152 0.0144367 15.3407 0.306021L15.342 5.58982C14.2332 5.50261 13.133 5.49928 12.0188 5.72695C10.6715 6.00256 9.44042 6.62501 8.32753 7.59562C7.21397 8.56624 6.43353 9.69596 5.98623 10.9855C5.53892 12.2749 5.46169 14.0438 5.75519 15.3952C6.37846 18.2617 8.04074 20.175 10.8018 21.1443C12.1162 21.6056 13.9021 21.551 15.2473 21.2748C16.5926 20.9992 17.6759 20.5245 18.7888 19.5546C19.5081 18.9275 20.0891 18.2331 20.5304 17.4722L15.7793 17.4789V7.25544H26.2983L26.299 16.9955C26.3009 17.148 26.3024 17.3231 26.2983 17.4789C26.3097 18.8249 24.1646 21.9758 22.2074 23.682L22.2081 23.6807Z" fill="white"/>
<path d="M26.3016 7.26953H15.7812V17.3944H26.3016V7.26953Z" fill="white"/>
</svg>
