<svg width="147" height="40" viewBox="0 0 147 40" fill="none" xmlns="http://www.w3.org/2000/svg">
<path d="M54.2931 27.21H51.998V12.3398H54.0381L62.4281 23.1099V12.3398H64.7232V27.21H62.7481L54.2931 16.3949V27.21Z" fill="white"/>
<path d="M69.5427 14.9105C69.1327 14.9105 68.7877 14.7705 68.5127 14.4955C68.2377 14.2205 68.0977 13.8755 68.0977 13.4655C68.0977 13.0555 68.2377 12.7105 68.5127 12.4255C68.7877 12.1405 69.1327 12.0005 69.5427 12.0005C69.9377 12.0005 70.2777 12.1405 70.5527 12.4255C70.8277 12.7105 70.9677 13.0555 70.9677 13.4655C70.9677 13.8755 70.8277 14.2205 70.5527 14.4955C70.2777 14.7755 69.9427 14.9105 69.5427 14.9105ZM70.6927 27.2106H68.3977V16.7805H70.6927V27.2106Z" fill="white"/>
<path d="M80.1733 16.5049C81.6483 16.5049 82.8583 17.0349 83.8083 18.0999C84.7583 19.1499 85.2333 20.4499 85.2333 22.0099C85.2333 23.5549 84.7583 24.85 83.8083 25.895C82.8583 26.955 81.6483 27.49 80.1733 27.49C78.5732 27.49 77.3332 26.925 76.4532 25.79V31.46H74.1582V16.7799H76.4532V18.2049C77.3332 17.0699 78.5732 16.5049 80.1733 16.5049ZM79.5533 18.5199C78.8883 18.5199 78.2782 18.6949 77.7282 19.0399C77.1782 19.3849 76.7532 19.8349 76.4532 20.3899V23.62C76.7532 24.16 77.1782 24.6 77.7382 24.95C78.2982 25.295 78.9033 25.47 79.5533 25.47C80.5183 25.47 81.3183 25.14 81.9533 24.47C82.5883 23.79 82.9083 22.9699 82.9083 22.0049C82.9083 21.0299 82.5883 20.2049 81.9533 19.5399C81.3183 18.8599 80.5183 18.5199 79.5533 18.5199Z" fill="white"/>
<path d="M90.0489 27.21H87.7539V16.7799H90.0489V18.5849C90.4039 17.9749 90.9339 17.4749 91.6439 17.0899C92.3539 16.6999 93.104 16.5049 93.894 16.5049C93.994 16.5049 94.064 16.5099 94.104 16.5249V18.8199C93.849 18.7899 93.639 18.7749 93.469 18.7749C92.6889 18.7749 91.9889 18.9749 91.3639 19.3699C90.7389 19.7649 90.2989 20.2499 90.0489 20.8149V27.21Z" fill="white"/>
<path d="M101.175 27.4851C99.5045 27.4851 98.1295 26.9551 97.0545 25.8901C95.9795 24.8301 95.4395 23.5251 95.4395 21.9801C95.4395 20.45 95.9795 19.155 97.0545 18.095C98.1295 17.03 99.5045 16.5 101.175 16.5C102.82 16.5 104.185 17.03 105.275 18.095C106.35 19.155 106.89 20.45 106.89 21.9801C106.89 23.5101 106.35 24.8151 105.275 25.8901C104.185 26.9551 102.82 27.4851 101.175 27.4851ZM101.175 25.4701C102.14 25.4701 102.95 25.1401 103.62 24.4701C104.27 23.8201 104.595 22.9901 104.595 21.9851C104.595 20.995 104.27 20.17 103.62 19.52C102.955 18.855 102.14 18.52 101.175 18.52C100.199 18.52 99.3745 18.85 98.7095 19.52C98.0595 20.17 97.7345 20.995 97.7345 21.9851C97.7345 22.9901 98.0595 23.8201 98.7095 24.4701C99.3795 25.1351 100.199 25.4701 101.175 25.4701Z" fill="white"/>
<path d="M119.893 27.21H109.633V12.3398H111.993V25.065H119.893V27.21Z" fill="white"/>
<path d="M123.506 14.9105C123.096 14.9105 122.751 14.7705 122.476 14.4955C122.201 14.2205 122.061 13.8755 122.061 13.4655C122.061 13.0555 122.201 12.7105 122.476 12.4255C122.751 12.1405 123.096 12.0005 123.506 12.0005C123.901 12.0005 124.241 12.1405 124.516 12.4255C124.791 12.7105 124.931 13.0555 124.931 13.4655C124.931 13.8755 124.791 14.2205 124.516 14.4955C124.236 14.7755 123.901 14.9105 123.506 14.9105ZM124.651 27.2106H122.356V16.7805H124.651V27.2106Z" fill="white"/>
<path d="M131.217 18.7999V27.215H128.922V18.7999H126.967V16.7799H128.922V15.4199C128.922 14.4149 129.207 13.6149 129.772 13.0199C130.337 12.4249 131.147 12.1299 132.192 12.1299C133.097 12.1299 133.912 12.2799 134.637 12.5749V14.5099C133.972 14.2549 133.367 14.1249 132.832 14.1249C131.757 14.1249 131.217 14.6899 131.217 15.8249V16.7799H134.637V18.7999H131.217Z" fill="white"/>
<path d="M135.762 21.9849C135.762 20.4099 136.257 19.1099 137.247 18.0749C138.252 17.0249 139.542 16.5049 141.112 16.5049C142.187 16.5049 143.102 16.7899 143.852 17.3549C145.327 18.4049 146.062 19.9749 146.062 22.0699V22.6649H138.077C138.217 23.545 138.642 24.23 139.342 24.725C140.042 25.22 140.932 25.47 142.007 25.47C143.197 25.47 144.317 25.16 145.362 24.535V26.465C144.397 27.145 143.117 27.485 141.517 27.485C139.917 27.485 138.552 26.975 137.417 25.955C136.317 24.935 135.762 23.615 135.762 21.9849ZM138.102 20.9199H143.752C143.722 20.2699 143.477 19.6949 143.007 19.1999C142.527 18.6899 141.862 18.4349 141.012 18.4349C140.207 18.4349 139.537 18.6699 139.007 19.1449C138.472 19.6249 138.172 20.2149 138.102 20.9199Z" fill="white"/>
<path d="M33.9557 18.3919C34.0024 19.7706 33.5818 21.0032 32.9801 22.1715C32.4339 23.2318 32.1506 24.3622 32.1419 25.5247C32.1331 26.7106 32.3638 27.8819 32.9597 28.9481C34.9517 32.5057 33.8038 36.9571 30.2374 39.0134C29.4254 39.4808 28.5579 39.8342 27.5999 39.8985C27.1734 39.9277 26.744 40.0153 26.3205 39.9978C24.381 39.9102 22.6957 39.2238 21.3258 37.8217C20.2041 36.6738 19.4798 35.2951 18.9189 33.8084C18.0164 31.4074 17.6863 28.9101 17.552 26.366C17.4673 24.7916 17.5958 23.2318 17.7857 21.6779C17.9609 20.2555 18.2793 18.8593 18.7671 17.501C19.3308 15.9325 20.0785 14.4779 21.2498 13.2745C22.0239 12.4771 22.944 11.8783 23.9984 11.5161C24.9564 11.1861 25.9495 11.0342 26.966 11.0984C28.1782 11.1773 29.3232 11.4898 30.3688 12.1149C31.7387 12.9328 32.7669 14.0661 33.3861 15.5441C33.7717 16.4641 33.9937 17.4222 33.9557 18.3919Z" fill="white"/>
<path d="M10.2528 21.6082C10.2061 20.2295 10.6267 18.9969 11.2284 17.8285C11.7746 16.7682 12.0579 15.6378 12.0667 14.4753C12.0754 13.2894 11.8447 12.1182 11.2488 11.0521C9.25676 7.49437 10.4047 3.04294 13.9711 0.986639C14.7831 0.519295 15.6506 0.165866 16.6087 0.101606C17.0351 0.0723972 17.4645 -0.0152294 17.888 0.00229594C19.8275 0.0899228 21.5128 0.776332 22.8827 2.17836C24.0043 3.32627 24.7288 4.70493 25.2896 6.19166C26.1921 8.59263 26.5222 11.09 26.6565 13.6341C26.7412 15.2084 26.6127 16.7682 26.4229 18.3221C26.2476 19.7446 25.9292 21.1408 25.4415 22.499C24.8777 24.0675 24.1299 25.5221 22.9587 26.7256C22.1846 27.523 21.2646 28.1217 20.2101 28.4839C19.2521 28.814 18.259 28.9659 17.2425 28.9016C16.0303 28.8228 14.8854 28.5102 13.8397 27.8852C12.4697 27.0673 11.4416 25.934 10.8224 24.456C10.4368 23.5359 10.2119 22.5779 10.2528 21.6082Z" fill="white"/>
<path d="M43.882 25.5431C43.882 27.9412 41.9367 29.8864 39.5387 29.8864C37.1406 29.8864 35.1953 27.9412 35.1953 25.5431C35.1953 23.145 37.1406 21.1997 39.5387 21.1997C41.9367 21.1997 43.882 23.145 43.882 25.5431Z" fill="white"/>
<path d="M8.68673 14.2857C8.68673 16.6837 6.74141 18.6291 4.34337 18.6291C1.94531 18.6291 0 16.6837 0 14.2857C0 11.8876 1.94531 9.94232 4.34337 9.94232C6.74141 9.94232 8.68673 11.8847 8.68673 14.2857Z" fill="white"/>
</svg>
