<svg width="156" height="45" viewBox="0 0 156 45" fill="none" xmlns="http://www.w3.org/2000/svg">
<path d="M21.1942 18.7658C20.8357 19.1566 20.4448 19.5165 20.0255 19.8412C19.432 20.3004 18.7861 20.6876 18.1013 20.9943C17.2321 21.388 16.3254 21.6925 15.3949 21.9032C14.2391 22.1614 13.0573 22.2851 11.8731 22.272C9.7993 22.272 8.01506 21.9491 6.52042 21.3032C5.12188 20.7248 3.86343 19.8535 2.82976 18.748C1.87116 17.7014 1.14294 16.4653 0.692236 15.1195C0.232576 13.7673 -0.000899915 12.3483 0.00120804 10.92C-0.0213135 9.37588 0.271282 7.84337 0.861107 6.41614C1.41164 5.10457 2.24112 3.92859 3.29192 2.96989C4.38813 1.98711 5.67351 1.23858 7.06924 0.770158C8.6394 0.24142 10.2875 -0.0185018 11.9442 0.00135635C13.0522 -0.0120077 14.1575 0.111891 15.2349 0.370209C16.1204 0.584585 16.9699 0.926633 17.7568 1.38563C18.442 1.78913 19.0511 2.30954 19.5567 2.92323C20.035 3.5141 20.4333 4.16557 20.741 4.86077H18.4568C18.2892 4.39105 18.0327 3.95803 17.7013 3.58537C17.3062 3.1392 16.8381 2.76352 16.317 2.47439C15.708 2.12618 15.0568 1.85736 14.3795 1.6745C13.5932 1.46057 12.7812 1.35663 11.9664 1.36564C10.7357 1.35271 9.51562 1.59402 8.38243 2.07444C7.30927 2.52857 6.34056 3.19781 5.5361 4.04087C4.72188 4.90637 4.08949 5.92636 3.67632 7.04051C3.22128 8.26576 2.99534 9.56425 3.00974 10.8711C3.00632 12.1568 3.21964 13.4338 3.64077 14.6484C4.0423 15.8278 4.6745 16.9155 5.50054 17.8481C6.35569 18.8002 7.40509 19.5579 8.57796 20.07C9.91747 20.6457 11.3642 20.929 12.8219 20.9011C15.5959 20.9395 18.2723 19.8778 20.2654 17.9481L21.1942 18.7658Z" fill="white"/>
<path d="M24.0073 7.41332C24.4576 6.08556 25.1626 4.85837 26.0826 3.80044C27.0893 2.65727 28.3177 1.7305 29.6933 1.07632C31.1479 0.360851 32.8914 0.00236918 34.9238 0.000883378C36.9561 -0.000593432 38.7337 0.363804 40.2565 1.09409C41.6734 1.75327 42.9441 2.68931 43.9938 3.84709C44.9432 4.9012 45.6817 6.12766 46.169 7.45999C46.6167 8.63466 46.8565 9.87825 46.8779 11.1351C46.8708 11.9455 46.7619 12.7517 46.5535 13.5349C46.3282 14.4025 46.0086 15.2431 45.6002 16.0412C45.1648 16.8963 44.6219 17.6922 43.9849 18.4098C43.3083 19.1773 42.5266 19.8454 41.6629 20.394C40.727 20.9893 39.712 21.45 38.6477 21.7628C37.4346 22.1157 36.176 22.2872 34.9126 22.2715C32.8818 22.2715 31.1383 21.9071 29.6822 21.1784C28.3081 20.5143 27.0833 19.5776 26.0826 18.4254C25.1662 17.3648 24.4616 16.1384 24.0073 14.8124C23.5864 13.6312 23.3613 12.389 23.3407 11.1351C23.3602 9.86664 23.5854 8.60973 24.0073 7.41332ZM27.0269 15.088C27.4296 16.2251 28.0457 17.2749 28.8423 18.1809C29.5997 19.0339 30.5268 19.7195 31.5642 20.1941C32.6352 20.682 33.8001 20.9294 34.9771 20.9184C36.1592 20.924 37.3289 20.677 38.4078 20.1941C39.4757 19.7188 40.4376 19.0343 41.2363 18.1809C42.0694 17.2824 42.7227 16.2324 43.1605 15.088C44.1027 12.5377 44.1027 9.7347 43.1605 7.18447C42.7231 6.03977 42.0699 4.98977 41.2363 4.09151C40.4376 3.23816 39.4757 2.55364 38.4078 2.07843C37.3289 1.59546 36.1592 1.34849 34.9771 1.35406C33.8001 1.34312 32.6352 1.59038 31.5642 2.07843C30.5268 2.55296 29.5997 3.23858 28.8423 4.09151C28.0453 4.99715 27.429 6.04703 27.0269 7.18447C26.144 9.74505 26.144 12.5274 27.0269 15.088Z" fill="white"/>
<path d="M70.8682 0.369731V22.2715H70.7149L53.6436 5.44467H53.5214V21.9027H52.106V0.000878907H52.2594L69.3307 16.8255H69.4528V0.369731H70.8682Z" fill="white"/>
<path d="M97.2918 18.7655C96.4224 19.7091 95.3703 20.4653 94.1985 20.9874C93.33 21.3833 92.4228 21.69 91.4922 21.9029C90.3366 22.1611 89.1547 22.2848 87.9705 22.2717C85.8967 22.2717 84.1125 21.9488 82.6179 21.3029C81.2193 20.7245 79.9609 19.8532 78.9271 18.7477C77.9718 17.7003 77.2466 16.4643 76.7985 15.1192C76.3388 13.767 76.1054 12.348 76.1075 10.9197C76.0849 9.37558 76.3776 7.84307 76.9674 6.41584C77.5179 5.10427 78.3474 3.92829 79.3982 2.96959C80.4947 1.98727 81.78 1.2388 83.1755 0.769859C84.7457 0.241121 86.3938 -0.0188006 88.0505 0.00105761C89.1584 -0.0123064 90.2637 0.111592 91.341 0.36991C92.2266 0.584287 93.0762 0.926335 93.8628 1.38533C94.5486 1.78883 95.157 2.30924 95.6628 2.92293C96.1425 3.51325 96.5403 4.16484 96.8472 4.86047H94.554C94.3866 4.39075 94.1301 3.95773 93.7989 3.58507C93.4038 3.13945 92.9367 2.76381 92.4165 2.47409C91.8063 2.12627 91.1547 1.85748 90.477 1.6742C89.6907 1.46027 88.8786 1.35633 88.0638 1.36534C86.8331 1.35266 85.613 1.59396 84.4799 2.07414C83.4066 2.52827 82.4379 3.19751 81.6335 4.04057C80.8198 4.90652 80.1876 5.92638 79.7738 7.04021C79.3187 8.26546 79.0927 9.56395 79.1071 10.8708C79.1037 12.1565 79.317 13.4335 79.7381 14.6481C80.1396 15.828 80.7727 16.9159 81.6001 17.8478C82.4545 18.7999 83.5032 19.5576 84.6753 20.0697C86.0148 20.6454 87.4617 20.9287 88.9193 20.9008C91.6929 20.9392 94.3695 19.8775 96.363 17.9478L97.2918 18.7655Z" fill="white"/>
<path d="M115.501 0.37002V2.06315H104.391V9.78222H113.928V11.1976H104.396V20.2099H115.505V21.903H101.598V0.37002H115.501Z" fill="white"/>
<path d="M122.913 21.9027H120.113V0.369745H127.31C128.371 0.347082 129.426 0.524991 130.421 0.894123C131.242 1.2041 131.99 1.67986 132.619 2.29173C133.2 2.87341 133.646 3.57587 133.925 4.34926C134.21 5.14464 134.353 5.98401 134.348 6.82896C134.355 7.69907 134.187 8.56185 133.856 9.36641C133.525 10.1609 133.026 10.8748 132.394 11.4595C131.695 12.0957 130.874 12.5826 129.981 12.8905C128.909 13.257 127.781 13.4337 126.648 13.4126C125.969 13.4163 125.29 13.3702 124.618 13.2748C124.037 13.1891 123.462 13.0705 122.895 12.9193L122.913 21.9027ZM122.913 11.6595C123.377 11.8313 123.863 11.9397 124.358 11.9816C124.89 12.0335 125.474 12.0595 126.111 12.0595C126.925 12.0806 127.734 11.9229 128.481 11.5972C129.101 11.3153 129.657 10.9066 130.109 10.3975C130.533 9.92036 130.853 9.36038 131.047 8.75318C131.239 8.1723 131.338 7.56497 131.341 6.95338C131.337 6.3192 131.228 5.69006 131.018 5.0914C130.805 4.4717 130.477 3.89796 130.05 3.40048C129.599 2.88333 129.043 2.46886 128.419 2.18508C127.704 1.86434 126.925 1.70648 126.141 1.7229H122.913V11.6595Z" fill="white"/>
<path d="M144.137 21.903V2.06315H135.903V0.37002H155.189V2.06315H146.946V21.903H144.137Z" fill="white"/>
<path d="M58.3566 43.1248C58.1659 43.3347 57.9569 43.5273 57.7322 43.7003C57.4159 43.9446 57.0721 44.1512 56.7079 44.3157C56.2432 44.5253 55.7586 44.6876 55.2614 44.8002C54.6446 44.9388 54.0137 45.0051 53.3816 44.9979C52.4045 45.0215 51.433 44.8453 50.5264 44.4801C49.7791 44.1722 49.1069 43.7069 48.5555 43.1159C48.0434 42.558 47.6543 41.8986 47.4134 41.1806C47.1693 40.4583 47.0447 39.701 47.0446 38.9387C47.0324 38.1143 47.1889 37.2962 47.5046 36.5345C47.799 35.8345 48.2417 35.2069 48.8022 34.6947C49.3857 34.1709 50.0699 33.7717 50.8131 33.5215C51.651 33.239 52.5307 33.1 53.415 33.1104C54.0068 33.1021 54.5973 33.1686 55.1725 33.3082C55.6449 33.4227 56.0983 33.6046 56.519 33.8482C56.8843 34.0643 57.2091 34.3425 57.4789 34.6702C57.7342 34.9851 57.9464 35.3325 58.1099 35.7034H56.8967C56.807 35.4534 56.6705 35.2226 56.4946 35.0236C56.2833 34.7835 56.0332 34.5807 55.7547 34.4236C55.4297 34.2381 55.0826 34.0948 54.7215 33.997C53.6582 33.7226 52.5348 33.8006 51.5197 34.2191C50.9463 34.4615 50.429 34.8193 49.9998 35.2702C49.5652 35.7318 49.2275 36.2757 49.0066 36.87C48.7649 37.524 48.6452 38.2169 48.6533 38.9142C48.6512 39.6017 48.7654 40.2845 48.991 40.934C49.2053 41.5631 49.543 42.1433 49.9843 42.6404C50.4408 43.1472 51.0007 43.5503 51.6263 43.8225C52.3407 44.1302 53.1127 44.2818 53.8904 44.2668C55.3716 44.2878 56.8008 43.7213 57.8656 42.6915L58.3566 43.1248Z" fill="white"/>
<path d="M60.6472 44.8003V33.3084H62.1337V43.9004H68.0663V44.8047L60.6472 44.8003Z" fill="white"/>
<path d="M72.6816 33.3084V44.8003H71.1862V33.3084H72.6816Z" fill="white"/>
<path d="M87.2927 33.3084V44.998H87.2104L78.1004 36.0169H78.036V44.8003H77.2805V33.1106H77.3627L86.4728 42.0917H86.5394V33.3084H87.2927Z" fill="white"/>
<path d="M93.3833 33.3084V44.8003H91.8902V33.3084H93.3833Z" fill="white"/>
<path d="M108.144 43.1248C107.952 43.3342 107.744 43.5267 107.52 43.7003C107.203 43.9451 106.858 44.1516 106.493 44.3157C106.029 44.5257 105.545 44.688 105.049 44.8002C104.432 44.9385 103.801 45.0048 103.169 44.9979C102.191 45.0215 101.219 44.8453 100.311 44.4801C99.5654 44.1717 98.894 43.7064 98.3432 43.1159C97.8311 42.558 97.4414 41.8986 97.2011 41.1806C96.9554 40.4586 96.8312 39.7011 96.8321 38.9387C96.8195 38.1143 96.9761 37.2962 97.292 36.5345C97.5854 35.8347 98.0273 35.207 98.5871 34.6947C99.1712 34.171 99.857 33.7718 100.6 33.5215C101.438 33.2388 102.318 33.0998 103.202 33.1104C103.794 33.1021 104.383 33.1686 104.957 33.3082C105.43 33.4219 105.883 33.6038 106.304 33.8482C106.671 34.0637 106.996 34.342 107.266 34.6702C107.52 34.9857 107.733 35.333 107.898 35.7034H106.682C106.593 35.453 106.457 35.2221 106.279 35.0236C106.069 34.7835 105.819 34.5808 105.542 34.4236C105.216 34.2381 104.868 34.0948 104.506 33.997C103.443 33.7226 102.319 33.8006 101.305 34.2191C100.733 34.4621 100.216 34.8198 99.7868 35.2702C99.3521 35.7318 99.0146 36.2757 98.7941 36.87C98.552 37.524 98.4323 38.2169 98.4404 38.9142C98.4377 39.6015 98.5511 40.2844 98.7761 40.934C98.9903 41.5631 99.3278 42.1433 99.7697 42.6404C100.226 43.1467 100.786 43.5497 101.411 43.8225C102.127 44.1299 102.899 44.2814 103.677 44.2668C105.158 44.2882 106.587 43.7217 107.651 42.6915L108.144 43.1248Z" fill="white"/>
</svg>
