<svg width="280" height="280" viewBox="0 0 280 280" fill="none" xmlns="http://www.w3.org/2000/svg">
<circle cx="140" cy="140.417" r="140" fill="none"/>
<g clip-path="url(#clip0_430_2716)">
<path d="M100.505 129.586L102.697 122.954H154.569L151.646 129.586H133.138L121.448 162.009H106.593L118.77 129.586H100.505Z" fill="#63656C"/>
<path d="M220.809 144.078L218.617 150.71H249.789C251.656 146.78 255.049 138.429 253.685 136.464C251.98 134.008 247.597 132.288 231.524 132.78C215.451 133.271 210.337 133.025 206.44 135.236C202.544 137.447 199.134 144.324 196.943 150.71C195.189 155.82 195.563 158.407 195.969 159.062C196.05 160.044 198.063 162.009 205.466 162.009C212.869 162.009 234.852 162.337 244.918 162.501L248.327 155.377H214.72C212.691 155.623 209.85 153.854 214.72 144.815C216.912 139.657 219.347 139.657 240.047 139.903C242.58 139.903 241.103 142.687 240.047 144.078H220.809Z" fill="#63656C"/>
<path d="M183.792 122.954H198.647L183.792 162.009L169.18 162.501L183.792 122.954Z" fill="#63656C"/>
<path d="M155.786 132.78H170.885L159.196 162.009H145.071L155.786 132.78Z" fill="#63656C"/>
<path d="M157.004 129.586L159.926 122.954H173.807L171.616 129.586H157.004Z" fill="#63656C"/>
<path d="M40.5968 142.85C46.9286 137.447 56.4261 127.621 61.7838 125.411C63.9121 124.533 67.2654 124.047 68.7213 123.945C68.7656 123.942 68.7832 123.886 68.7486 123.857L54.7215 112.393C53.3415 111.083 49.4126 109.101 44.7368 111.656C40.061 114.21 31.586 121.481 28.1766 124.674C25.4978 126.639 25.0594 131.601 28.1766 134.745C30.1248 136.71 37.4309 141.213 40.5968 142.85Z" fill="#63656C"/>
<path d="M26 137.417V149.944C26 152.155 26.9591 155.623 30.6121 159.062C34.265 162.501 44.7368 168.396 44.9803 168.641C45.2238 168.887 48.6231 170.257 50.825 168.641C53.5038 166.676 53.9909 164.466 53.9909 161.272V153.904L26 137.417Z" fill="#63656C"/>
<path fill-rule="evenodd" clip-rule="evenodd" d="M73.529 132.417V138.301L67.2334 133.367C66.7058 132.954 65.9698 132.963 65.4529 133.391L51.5341 144.899C50.7832 145.52 50.8319 146.705 51.631 147.26L56.7408 150.804V165.023C56.7408 167.377 53.7829 169.6 52.6637 170.417H70.4112C73.529 170.417 75.3033 168.21 75.6874 166.836C76.1594 165.147 76.0122 156.007 75.9312 151.043C75.9287 150.89 75.996 150.748 76.1131 150.654L80.4542 147.141C81.1153 146.606 81.1868 145.607 80.6089 144.979L77.8459 141.978V132.417H73.529ZM61.0577 153.501V163.798C61.0577 165.103 62.5163 166.249 63.2162 166.249C64.4154 166.249 63.7808 166.249 63.6959 166.249H69.212C69.8929 166.249 71.3705 165.269 71.3705 164.288V153.011C71.3705 152.286 70.5822 150.804 68.9722 150.804C68.2579 150.804 67.9241 150.804 66.8735 150.804C66.8734 150.804 66.8735 150.804 66.8734 150.804C66.8714 150.804 64.796 150.805 63.8639 150.804C62.9764 150.804 61.0577 151.523 61.0577 153.501ZM74.9859 146.146C75.445 146.146 75.6418 145.55 75.2766 145.266L66.6181 138.522C66.4495 138.391 66.2166 138.388 66.0452 138.516L56.9744 145.259C56.5987 145.538 56.792 146.146 57.2565 146.146H74.9859Z" fill="#63656C"/>
<path d="M60.9798 144.917C60.5209 144.917 60.3248 144.407 60.6904 144.165L66.2106 140.502C66.3817 140.389 66.6183 140.389 66.7894 140.502L72.3096 144.165C72.6752 144.407 72.4791 144.917 72.0202 144.917H66.5H60.9798Z" fill="#92D329"/>
<path d="M60.5 153.917C60.5 151.984 62.067 150.417 64 150.417H69C70.933 150.417 72.5 151.984 72.5 153.917V163.917C72.5 165.85 70.933 167.417 69 167.417H64C62.067 167.417 60.5 165.85 60.5 163.917V153.917Z" fill="white"/>
</g>
<g clip-path="url(#clip1_430_2716)">
<rect y="0.416992" width="280" height="280" rx="140" fill="#09275D"/>
<path opacity="0.89" d="M32.9922 266.968V208.094C32.9922 185.707 51.1392 167.563 73.5302 167.563C95.9212 167.563 114.068 185.707 114.068 208.094V212.05C114.068 234.437 132.215 252.581 154.606 252.581H154.717C177.108 252.581 195.255 234.437 195.255 212.05V89.9481C195.255 67.561 213.402 49.417 235.793 49.417C258.184 49.417 276.331 67.561 276.331 89.9481V95.1415C276.331 117.529 294.478 135.673 316.869 135.673C339.26 135.673 357.407 153.817 357.407 176.204C357.407 198.591 375.554 216.735 397.945 216.735C420.336 216.735 438.484 198.591 438.484 176.204V127.584C438.484 105.197 456.631 87.053 479.022 87.053C501.413 87.053 519.56 105.197 519.56 127.584V202.061C519.56 224.448 537.707 242.592 560.098 242.592C582.489 242.592 600.636 224.448 600.636 202.061V196.668C600.636 174.281 618.783 156.137 641.174 156.137C663.565 156.137 681.712 174.281 681.712 196.668V212.47C681.911 234.68 699.97 252.603 722.228 252.603" stroke="#F4AFC1" stroke-width="34.1447" stroke-miterlimit="10"/>
<path d="M214.115 83.4923V129.756H221.79H243.833V123.215H221.865V108.874H239.953V102.322H221.865V89.9735H243.833V83.4923H221.79H214.115Z" fill="#FCF9EE"/>
<path d="M61.3517 122.219C56.7921 122.219 52.5019 120.528 49.2789 117.519C46.0559 114.51 44.245 110.505 44.245 106.248C44.245 101.99 46.0559 97.985 49.2789 94.9759C52.5019 91.9064 56.7921 90.276 61.3517 90.276C65.3724 90.276 69.1343 91.534 72.1525 93.8487V85.2743C71.8184 85.1434 71.4195 84.9623 71.0746 84.8315C67.9917 83.5835 64.7041 83.0099 61.3517 83.0099C57.9993 83.0099 54.7117 83.5735 51.6935 84.8315C48.6753 85.9586 46.0667 87.6494 43.7815 89.7829C41.5071 91.9165 39.6961 94.4123 38.4134 97.1698C37.1415 100.048 36.4731 103.118 36.4731 106.248C36.4731 109.377 37.1415 112.447 38.4134 115.265C39.6961 118.083 41.4963 120.528 43.7815 122.652C46.0667 124.785 48.6753 126.466 51.6935 127.664C54.7117 128.851 57.9993 129.485 61.3517 129.485C64.7041 129.485 67.9917 128.851 71.0746 127.664C72.4867 127.1 73.8233 126.416 75.0953 125.661V115.768C74.5563 116.392 74.0173 116.956 73.4137 117.519C70.1907 120.528 65.9005 122.219 61.3409 122.219" fill="#FCF9EE"/>
<path d="M144.784 123.215H121.554V129.757H144.784V123.215Z" fill="#FCF9EE"/>
<path d="M144.784 83.5245H121.554V90.0057H144.784V83.5245Z" fill="#FCF9EE"/>
<path d="M144.179 102.344H125.089V108.886H144.179V102.344Z" fill="#FCF9EE"/>
<path d="M177.207 123.215H154.581V129.757H177.207V123.215Z" fill="#FCF9EE"/>
<path d="M177.207 83.5245H154.581V90.0057H177.207V83.5245Z" fill="#FCF9EE"/>
<path d="M173.176 102.344H154.581V108.886H173.176V102.344Z" fill="#FCF9EE"/>
<path d="M204.846 108.221C203.789 107.295 202.334 105.997 201.148 104.89L192.967 97.5632C190.919 95.7114 190.854 94.2924 191.113 93.437C191.512 92.1488 192.967 91.0921 194.67 90.7901C196.061 90.5486 198.626 90.5486 201.138 93.3766L207.142 88.878C205.234 86.7243 202.981 85.1845 200.48 84.2586C198.109 83.4636 195.597 83.2724 193.226 83.7655C191.048 84.1379 189.011 85.0537 187.351 86.3519C185.572 87.771 184.322 89.4919 183.729 91.4644C183.136 93.3162 183.201 95.3491 183.858 97.2613C184.516 99.2338 185.766 101.075 187.62 102.746L193.624 108.04C193.883 108.291 197.451 111.552 199.628 113.464C201.019 114.692 202.539 116.544 201.881 118.637C201.288 120.489 199.24 122.029 196.74 122.451C195.284 122.763 193.7 122.632 192.255 122.079C190.477 121.465 188.828 120.227 187.437 118.506L181.368 122.944C183.675 125.712 186.381 127.624 189.485 128.792C191.328 129.466 193.312 129.778 195.295 129.778C196.287 129.778 197.268 129.717 198.26 129.536C203.606 128.55 207.896 125.038 209.276 120.61C209.933 118.516 209.869 116.292 209.147 114.199C208.424 112.045 206.969 110.012 204.856 108.231" fill="#FCF9EE"/>
<path d="M107.704 99.5363L87.9458 105.766V83.5245H80.2063V129.768H87.9458V112.317L107.704 106.078V129.768H115.444V83.5245H107.704V99.5363Z" fill="#FCF9EE"/>
<path d="M146.632 143.903V189.913H154.296H176.297V183.404H154.361V169.144H172.427V162.626H154.361V150.351H176.297V143.903H154.296H146.632Z" fill="#FCF9EE"/>
<path d="M241.724 143.903L229.522 159.567L217.33 143.903H208.373L225.674 165.735V189.662H233.37V165.735L250.606 143.903H241.724Z" fill="#FCF9EE"/>
<path d="M209.312 155.594C209.312 153.809 208.978 152.215 208.321 150.801C207.598 149.267 206.477 147.913 204.957 146.87C202.187 144.965 198.231 144.042 192.809 144.042H181.987V189.61H189.64V170.887C191.677 170.456 193.93 169.935 194.588 169.684C196.108 170.296 204.742 189.61 204.742 189.61H213.624C213.624 189.61 203.308 167.317 202.511 166.826C208.008 163.577 209.312 158.051 209.312 155.594ZM200.333 159.586C199.018 160.809 197.099 161.862 194.663 162.775C192.939 163.447 191.16 163.938 189.64 164.249V150.44H192.809C195.385 150.44 198.953 150.751 200.797 152.034C201.519 152.526 202.381 153.378 202.381 155.594C202.381 157.069 201.724 158.362 200.333 159.586Z" fill="#FCF9EE"/>
<path d="M59.3093 170.117C58.5117 168.442 57.3798 166.968 55.9139 165.604C55.1809 164.992 54.4479 164.431 53.6502 163.929C56.6468 161.031 57.5092 158.003 57.5092 155.526C57.5092 153.731 57.175 152.126 56.5067 150.702C55.7845 149.158 54.6527 147.794 53.122 146.751C50.3302 144.836 46.3419 143.903 40.8983 143.903H30.0005V189.772H40.8983C46.482 189.772 51.0632 188.719 54.4587 186.744C56.3881 185.57 57.908 184.086 58.9752 182.351C60.0423 180.496 60.5705 178.46 60.5705 176.174C60.5705 174.008 60.1717 171.972 59.3093 170.117ZM37.7077 150.331H40.8983C43.4854 150.331 47.0749 150.642 48.9397 151.936C49.6727 152.427 50.535 153.3 50.535 155.526C50.535 157.01 49.8667 158.304 48.4762 159.547C47.1395 160.781 45.2208 161.834 42.7631 162.766C41.0277 163.448 39.2383 163.94 37.7077 164.25V150.341V150.331ZM50.6644 181.298C48.4762 182.602 45.0807 183.274 40.8983 183.274H37.7077V170.909C39.7665 170.478 42.4937 169.856 45.2208 168.813C45.9538 168.573 46.6221 168.252 47.2797 168.011C48.8103 168.633 50.0715 169.375 51.0632 170.297C52.7987 171.842 53.6502 173.757 53.6502 176.174C53.6502 178.591 52.7232 180.065 50.6644 181.308" fill="#FCF9EE"/>
<path d="M60.1062 189.912H68.5033L72.6318 180.204H89.954L94.0825 189.912H102.415L81.2875 142.558L60.0955 189.912H60.1062ZM75.3912 173.866L81.2983 160.078L87.2053 173.866H75.3912Z" fill="#FCF9EE"/>
<path d="M139.884 143.903H130.15L114.283 162.877V143.903H106.555V189.913H114.283V169.084L133.88 189.913H143.549L121.753 166.045L139.884 143.903Z" fill="#FCF9EE"/>
</g>
<defs>
<clipPath id="clip0_430_2716">
<rect width="228" height="60" fill="white" transform="translate(26 110.417)"/>
</clipPath>
<clipPath id="clip1_430_2716">
<rect y="0.416992" width="280" height="280" rx="140" fill="white"/>
</clipPath>
</defs>
</svg>
