<svg width="280" height="280" viewBox="0 0 280 280" fill="none" xmlns="http://www.w3.org/2000/svg">
<g clip-path="url(#clip0_433_3395)">
<circle cx="140" cy="140.417" r="140" fill="white"/>
<mask id="mask0_433_3395" style="mask-type:luminance" maskUnits="userSpaceOnUse" x="30" y="78" width="220" height="127">
<path d="M250 78.417H30V204.417H250V78.417Z" fill="white"/>
</mask>
<g mask="url(#mask0_433_3395)">
<path fill-rule="evenodd" clip-rule="evenodd" d="M230.036 144.464C227.561 144.738 225.623 150.735 224.888 157.919C224.152 165.103 224.888 170.757 227.354 170.483C229.821 170.209 231.806 164.167 232.572 156.952C233.338 149.738 232.572 144.16 230.058 144.434L230.036 144.464ZM171.285 115.47C165.156 115.858 161.111 132.6 159.265 150.568C157.419 168.535 158.154 184.387 164.268 183.991C170.381 183.595 173.905 167.462 175.759 149.502C177.613 131.543 177.414 115.097 171.285 115.47ZM227.132 172.226C221.946 172.804 217.863 170.331 216.07 166.084C213.389 170.841 209.589 174.798 205.215 175.529C200.488 176.29 195.302 174.311 193.394 169.121C186.277 179.181 175.414 186.168 163.846 186.921C145.629 188.093 132.383 173.36 133.586 153.726C133.58 151.983 133.733 150.243 134.046 148.528C136.957 132.478 135.877 121.543 126.3 126.566C119.406 130.195 117.621 144.457 117.621 144.457L117.568 144.305C116.801 150.636 116.081 156.557 115.591 161.343C115.512 162.053 115.392 162.756 115.231 163.452C112.411 183.527 94.8376 205.763 64.34 204.188C39.6033 202.91 24.9635 181.936 32.1417 160.537C35.4664 150.59 47.7161 142.653 56.3728 144.411C66.1022 146.382 67.0138 153.322 66.2168 153.703C63.9876 154.768 58.0736 155.27 53.5996 160.978C46.7049 169.768 42.8745 198.001 66.531 200.201C87.9814 202.194 97.343 175.087 86.1426 160.582C81.5462 154.677 70.821 145.126 61.9806 135.309C53.7374 126.177 50.4126 118.179 51.5772 106.84C52.5424 97.3809 61.5744 77.298 87.4068 78.6298C98.607 79.2081 110.558 86.704 106.406 95.1208C103.893 100.204 96.5306 99.915 94.2632 96.1785C94.1024 95.9122 97.8026 94.5195 98.216 91.8713C98.8366 87.9216 94.3858 81.7195 86.8244 81.3313C71.9626 80.5703 63.482 97.9821 74.4676 108.02C82.7642 115.599 91.222 123.194 98.5074 129.648C99.2734 121.01 99.932 114.199 100.147 112.068C100.23 111.305 100.236 110.535 100.162 109.77C100.162 109.77 91.735 109.428 93.4206 107.487C93.6886 107.183 100.384 107.685 109.508 103.362C116.839 99.877 124.554 92.8605 124.554 92.8605C124.554 92.8605 122.01 110.478 119.529 129.176C123.627 123.917 130.483 117.814 140.213 117.837C144.916 117.837 148.509 118.963 151.198 120.805C156.98 116.162 164.036 113.359 171.446 112.761C190.184 111.543 203.675 127.167 201.568 147.645C201.568 147.835 201.522 148.018 201.499 148.208C203.74 146.516 206.334 145.343 209.091 144.776C215.48 143.688 217.418 147.767 216.307 150.416C214.967 153.611 210.945 153.459 211.144 152.988C213.649 146.222 210.623 145.286 209.198 146.268C207.214 147.638 204.272 152.972 203.246 160.727C202.227 168.337 203.583 174.044 206.142 173.306C212.071 171.579 213.036 158.086 217.878 151.093C218.345 150.416 218.728 149.89 219.065 149.464C221.861 145.72 225.868 143.026 230.212 142.547C237.804 141.702 243.274 147.653 242.43 155.841C241.588 164.03 234.74 171.412 227.148 172.226H227.132ZM249.64 173.109C249.416 174.289 248.744 175.338 247.762 176.038C246.782 176.738 245.566 177.035 244.37 176.868C243.8 176.739 243.26 176.497 242.788 176.157C242.312 175.817 241.914 175.386 241.612 174.888C241.31 174.391 241.112 173.838 241.03 173.262C240.948 172.688 240.984 172.102 241.136 171.541C241.352 170.353 242.022 169.294 243.006 168.584C243.99 167.875 245.21 167.572 246.414 167.736C246.99 167.863 247.534 168.106 248.012 168.448C248.492 168.791 248.894 169.227 249.198 169.731C249.502 170.233 249.698 170.792 249.776 171.373C249.854 171.953 249.814 172.544 249.654 173.109H249.64Z" fill="#499299"/>
</g>
</g>
<defs>
<clipPath id="clip0_433_3395">
<rect width="280" height="280" fill="white" transform="translate(0 0.416992)"/>
</clipPath>
</defs>
</svg>
