<svg width="280" height="280" viewBox="0 0 280 280" fill="none" xmlns="http://www.w3.org/2000/svg">
<circle cx="140" cy="140.417" r="140" fill="white"/>
<g clip-path="url(#clip0_430_1735)">
<path d="M100.505 129.586L102.697 122.954H154.569L151.646 129.586H133.138L121.448 162.009H106.593L118.77 129.586H100.505Z" fill="#63656C"/>
<path d="M220.809 144.078L218.617 150.71H249.789C251.656 146.78 255.049 138.429 253.685 136.464C251.98 134.008 247.597 132.288 231.524 132.78C215.451 133.271 210.337 133.025 206.44 135.236C202.544 137.447 199.134 144.324 196.943 150.71C195.189 155.82 195.563 158.407 195.969 159.062C196.05 160.044 198.063 162.009 205.466 162.009C212.869 162.009 234.852 162.337 244.918 162.501L248.327 155.377H214.72C212.691 155.623 209.85 153.854 214.72 144.815C216.912 139.657 219.347 139.657 240.047 139.903C242.58 139.903 241.103 142.687 240.047 144.078H220.809Z" fill="#63656C"/>
<path d="M183.792 122.954H198.647L183.792 162.009L169.18 162.501L183.792 122.954Z" fill="#63656C"/>
<path d="M155.786 132.78H170.885L159.196 162.009H145.071L155.786 132.78Z" fill="#63656C"/>
<path d="M157.004 129.586L159.926 122.954H173.807L171.616 129.586H157.004Z" fill="#63656C"/>
<path d="M40.5968 142.85C46.9286 137.447 56.4261 127.621 61.7838 125.411C63.9121 124.533 67.2654 124.047 68.7213 123.945C68.7656 123.942 68.7832 123.886 68.7486 123.857L54.7215 112.393C53.3415 111.083 49.4126 109.101 44.7368 111.656C40.061 114.21 31.586 121.481 28.1766 124.674C25.4978 126.639 25.0594 131.601 28.1766 134.745C30.1248 136.71 37.4309 141.213 40.5968 142.85Z" fill="#63656C"/>
<path d="M26 137.417V149.944C26 152.155 26.9591 155.623 30.6121 159.062C34.265 162.501 44.7368 168.396 44.9803 168.641C45.2238 168.887 48.6231 170.257 50.825 168.641C53.5038 166.676 53.9909 164.466 53.9909 161.272V153.904L26 137.417Z" fill="#63656C"/>
<path fill-rule="evenodd" clip-rule="evenodd" d="M73.529 132.417V138.301L67.2334 133.367C66.7058 132.954 65.9698 132.963 65.4529 133.391L51.5341 144.899C50.7832 145.52 50.8319 146.705 51.631 147.26L56.7408 150.804V165.023C56.7408 167.377 53.7829 169.6 52.6637 170.417H70.4112C73.529 170.417 75.3033 168.21 75.6874 166.836C76.1594 165.147 76.0122 156.007 75.9312 151.043C75.9287 150.89 75.996 150.748 76.1131 150.654L80.4542 147.141C81.1153 146.606 81.1868 145.607 80.6089 144.979L77.8459 141.978V132.417H73.529ZM61.0577 153.501V163.798C61.0577 165.103 62.5163 166.249 63.2162 166.249C64.4154 166.249 63.7808 166.249 63.6959 166.249H69.212C69.8929 166.249 71.3705 165.269 71.3705 164.288V153.011C71.3705 152.286 70.5822 150.804 68.9722 150.804C68.2579 150.804 67.9241 150.804 66.8735 150.804C66.8734 150.804 66.8735 150.804 66.8734 150.804C66.8714 150.804 64.796 150.805 63.8639 150.804C62.9764 150.804 61.0577 151.523 61.0577 153.501ZM74.9859 146.146C75.445 146.146 75.6418 145.55 75.2766 145.266L66.6181 138.522C66.4495 138.391 66.2166 138.388 66.0452 138.516L56.9744 145.259C56.5987 145.538 56.792 146.146 57.2565 146.146H74.9859Z" fill="#63656C"/>
<path d="M60.9798 144.917C60.5209 144.917 60.3248 144.407 60.6904 144.165L66.2106 140.502C66.3817 140.389 66.6183 140.389 66.7894 140.502L72.3096 144.165C72.6752 144.407 72.4791 144.917 72.0202 144.917H66.5H60.9798Z" fill="#92D329"/>
<path d="M60.5 153.917C60.5 151.984 62.067 150.417 64 150.417H69C70.933 150.417 72.5 151.984 72.5 153.917V163.917C72.5 165.85 70.933 167.417 69 167.417H64C62.067 167.417 60.5 165.85 60.5 163.917V153.917Z" fill="white"/>
</g>
<defs>
<clipPath id="clip0_430_1735">
<rect width="228" height="60" fill="white" transform="translate(26 110.417)"/>
</clipPath>
</defs>
</svg>
