<svg xmlns="http://www.w3.org/2000/svg" width="616" height="565" fill="none"><g filter="url(#a)"><path fill="#00A0DC" d="M513.857 54H251.476C243.481 54 237 60.481 237 68.476v152c0 7.995 6.481 14.476 14.476 14.476h262.381c7.995 0 14.476-6.481 14.476-14.476v-152c0-7.995-6.481-14.476-14.476-14.476Z"/><path stroke="#fff" stroke-linecap="round" stroke-linejoin="round" stroke-width="1.234" d="M513.857 54H251.476C243.481 54 237 60.481 237 68.476v152c0 7.995 6.481 14.476 14.476 14.476h262.381c7.995 0 14.476-6.481 14.476-14.476v-152c0-7.995-6.481-14.476-14.476-14.476Z"/></g><path stroke="#fff" stroke-linecap="round" stroke-linejoin="round" stroke-width="1.234" d="M457.85 80.745c-.635-.472-9.033-.472-9.694 8.397-.327 4.39 2.585 6.08 5.135 6.226 2.969.171 5.051-3.375 5.591-5.807M454.249 89.585l7.826-.348"/><path stroke="#fff" stroke-linecap="round" stroke-linejoin="round" stroke-width="1.234" d="M465.067 90.624c.144 1.772 2.087 3.903 4.205 2.373 5.305-3.834 5.335-10.297 1.535-10.037-4.375.3-6.039 3.999-5.74 7.665ZM479.132 83.038c-2.275 1.5-3.123 4.27-3.123 6.94 0 1.269.881 3.243 3.004 2.304 1.795-.794 3.088-2.737 3.751-4.833 2.138-6.762-1.357-5.91-3.632-4.41ZM486.29 93.737c0 .667 4.596-1.204 6.255-4.5 1.315-2.614 2.083-4.837-.501-6.94-1.006-.818-6.02-1.569-5.43-1.226-.216 6.03-.324 10.253-.324 12.666Z" clip-rule="evenodd"/><path stroke="#fff" stroke-linecap="round" stroke-linejoin="round" stroke-width="1.234" d="M499.431 82.056c.694-.968 3.666-4.754 5.267-1.08 1.825 4.192-4.747 5.38-4.946 9.555M500.087 94.497l.055 1.747M387 89.372c35.71-.684 18.86-.74 50.55-.078"/><path stroke="#fff" stroke-linecap="round" stroke-linejoin="round" stroke-width="1.234" d="M429.188 85.073c12.42 5.644 12.301 5.756.97 7.606"/><path stroke="#fff" stroke-linecap="round" stroke-linejoin="round" stroke-width="1.234" d="M451.631 118.011c.122 4.631.487 10.686.366 13.893-.011.283 2.862.077 4.893-1.307 2.179-1.484 3.409-4.218-.337-5.899-1.307-.587-3.046-.354-4.435-.354-.69 0 1.631-.067 2.412-.255 3.612-.873 4.352-3.515 3.612-4.769-1.155-1.957-3.325-2.393-6.511-1.309Z" clip-rule="evenodd"/><path stroke="#fff" stroke-linecap="round" stroke-linejoin="round" stroke-width="1.234" d="M461.125 132.417c9.297-18.048 5.877-18.96 10.613-.365M463.417 127.833l8.145-.565"/><path stroke="#fff" stroke-linecap="round" stroke-linejoin="round" stroke-width="1.234" d="M475.531 118.993c.168 4.281-.337 10.233 0 12.266 4.188 0 11.279-8.647 4.602-11.939-.922-.455-2.456-.564-4.602-.327Z" clip-rule="evenodd"/><path stroke="#fff" stroke-linecap="round" stroke-linejoin="round" stroke-width="1.234" d="M487.107 118.489c.369-.694 1.518-1.985 3.328-.694 1.81 1.291.761 3.036-.697 4.467-1.409 1.383-3.209 2.412-2.631 5.862M487.466 131.413l.313 1.202M387 124.732c35.71-.684 18.86-.739 50.55-.077"/><path stroke="#fff" stroke-linecap="round" stroke-linejoin="round" stroke-width="1.234" d="M429.188 120.433c12.42 5.644 12.301 5.756.97 7.606M452.613 154.295l.704 11.066M449.802 154.974l5.625-1.359M450.975 166.08l5.374-.962M460.246 154.622l.519 10.766M460.505 154.677c3.648.297 6.679 1.34 7.348 4.512 1.264 5.997-4.12 5.997-7.088 6.41M471.602 156.259c.322 4.992.391 8.646.206 10.962 1.335-.246 3.197-.749 5.588-1.51M472.583 161.496l4.626-.932M471.273 156.258l5.733-.155M480.44 168.699c.418-2.151 1.861-6.816 4.327-13.998l3.397 13.152M480.442 163.789l7.87-.989M495.938 154.622c-3.081.055-7.45 1.297-5.309 4.783 1.434 2.335 4.882.368 6.511 2.966 1.629 2.597-3.06 4.549-6.174 3.258M452.903 190.921c-.193 0 .952-4.14 3.433-12.422 2.422 5.803 3.873 9.464 4.352 10.982M453.594 186.706l5.706-1.173M468.041 180.162c-1.61-.295-5.305.574-5.305 4.481 0 4.899 5.784 3.588 8.045 1.55M468.369 176.949l9.863-.565M473.566 176.885l1.311 9.578M481.988 176.666l.218 10.458"/><path stroke="#fff" stroke-linecap="round" stroke-linejoin="round" stroke-width="1.234" d="M489.253 178.368c-1.886 1.223-2.315 2.089-2.719 4.17-.843 4.341 3.625 6.52 6.337 2.408 3.472-5.264-1.732-7.801-3.618-6.578Z" clip-rule="evenodd"/><path stroke="#fff" stroke-linecap="round" stroke-linejoin="round" stroke-width="1.234" d="m497.793 176.885-.064 9.672M497.794 177.212c6.654 11.8 4.639 12.088 5.865-1.704M512.199 176.558c-4.518-.474-5.106 4.402-2.344 5.337 2.761.935 5.346.935 4.274 4.446-1.072 3.511-5.537 2.871-7.034.674M387 159.904c35.71-.685 18.86-.74 50.55-.078"/><path stroke="#fff" stroke-linecap="round" stroke-linejoin="round" stroke-width="1.234" d="M429.188 155.604c12.42 5.644 12.301 5.756.97 7.606"/><g stroke="#212121" stroke-linecap="round" stroke-linejoin="round" stroke-width="1.234" clip-rule="evenodd" filter="url(#b)"><path fill="#fff" fill-rule="evenodd" d="m538.868 202-.653 25.505c-6.029.612-10.587.919-13.672.919-3.085 0-7.642-.307-13.672-.919l.764-16.798v-8.08c5.768.065 10.071.065 12.908 0 2.838-.065 7.613-.274 14.325-.627Z"/><path d="M524.571 214.417a5.33 5.33 0 0 1 5.33 5.33v2.302h-10.66v-2.302a5.33 5.33 0 0 1 5.33-5.33Zm0-7.071a2.998 2.998 0 1 1 0 5.995 2.998 2.998 0 0 1 0-5.995Z"/></g><g clip-rule="evenodd" filter="url(#c)"><path fill="#fff" fill-rule="evenodd" d="m399.558 74.837-.653 25.504c-6.029.613-10.587.92-13.672.92-3.085 0-7.643-.307-13.672-.92l.763-16.797v-8.08c5.769.065 10.072.065 12.909 0 2.838-.066 7.613-.275 14.325-.627Z"/><path stroke="#212121" stroke-linecap="round" stroke-linejoin="round" stroke-width="1.234" d="m399.558 74.837-.653 25.504c-6.029.613-10.587.92-13.672.92-3.085 0-7.643-.307-13.672-.92l.763-16.797v-8.08c5.769.065 10.072.065 12.909 0 2.838-.066 7.613-.275 14.325-.627Z"/></g><path stroke="#212121" stroke-linecap="round" stroke-linejoin="round" stroke-width="1.234" d="M385.26 87.254a5.33 5.33 0 0 1 5.33 5.33v2.302h-10.66v-2.302a5.33 5.33 0 0 1 5.33-5.33Zm0-7.07a2.998 2.998 0 1 1 0 5.994 2.998 2.998 0 0 1 0-5.995Z" clip-rule="evenodd"/><g filter="url(#d)"><path fill="#44E085" d="M444.69 225H182.309c-7.995 0-14.476 6.481-14.476 14.476v105.857c0 7.995 6.481 14.476 14.476 14.476H444.69c7.995 0 14.476-6.481 14.476-14.476V239.476c0-7.995-6.481-14.476-14.476-14.476Z"/><path stroke="#fff" stroke-linecap="round" stroke-linejoin="round" stroke-width="1.234" d="M444.69 225H182.309c-7.995 0-14.476 6.481-14.476 14.476v105.857c0 7.995 6.481 14.476 14.476 14.476H444.69c7.995 0 14.476-6.481 14.476-14.476V239.476c0-7.995-6.481-14.476-14.476-14.476Z"/></g><path stroke="#212121" stroke-linecap="round" stroke-linejoin="round" stroke-width="1.234" d="M199.247 288.474c-2.376 0-4.048 1.405-3.014 4.394 1.035 2.989 7.607 5.571 4.379 8.753-1.358 1.339-4.968 2.214-8.612-.878M207.386 281.687c2.227 14.194-2.835 23.02 5.553 20.698.463-.129 1.738-.898 1.849-1.103M204.671 294.806l7.511-1.529M217.339 288.926c8.547-3.384 6.305 3.893 8.081 13.102"/><path stroke="#212121" stroke-linecap="round" stroke-linejoin="round" stroke-width="1.234" d="M224.126 295.26c-6.482-.184-9.91 10.957.623 4.161M230.007 290.284c5.08 29.544-2.061 3.895 7.478.629M242.637 279.993c.187 3.395-2.773 30.378 7.514 18.953M238.143 287.779l8.475-.097M256.121 291.832c9.041-1.55 16.32-1.923 26.106-1.923"/><path stroke="#212121" stroke-linecap="round" stroke-linejoin="round" stroke-width="1.234" d="M275.964 285.688c3.56 2.122 5.979 3.477 7.258 4.066a202.17 202.17 0 0 1-6.386 5.301M294.699 288.022c-.63-.29-2.492-.29-3.774.681-2.133 1.616-1.956 4.845 1.855 5.772 5.577 1.357 4.501 4.534 3.226 5.685-1.533 1.383-3.717 1.049-5.792.193M302.84 277.165c4.026 26.693-2.407 30.302 8.228 20.542M297.865 286.665l10.856-.352"/><path stroke="#212121" stroke-linecap="round" stroke-linejoin="round" stroke-width="1.234" d="M317.315 287.568c-2.456.389-4.434 2.699-3.152 6.19.595 1.622 2.045 3.56 4.914 3.105 2.869-.455 4.215-3.56 3.553-5.992-.932-3.427-2.86-3.693-5.315-3.303Z" clip-rule="evenodd"/><path stroke="#212121" stroke-linecap="round" stroke-linejoin="round" stroke-width="1.234" d="m325.488 285.785 2.527 18.567M326.393 289.404c1.158-1.05 3.465-1.383 4.106-.373 2.376 3.745.297 7.843-2.948 6.16M339.583 293.156l16.177-1.856M350.747 287.432c8.375 4.924 7.714 1.682 2.551 9.592M370.332 288.945c-2.559-.522-3.943.396-4.527 1.716-1.676 3.788 1.968 7.758 7.222 4.285"/><path stroke="#212121" stroke-linecap="round" stroke-linejoin="round" stroke-width="1.234" d="M379.247 297.307c2.474 0 3.513-2.818 2.614-6.364-.695-2.745-1.629-3.482-3.648-3.189-1.747.253-2.241 2.594-2.099 4.427.213 2.769.659 5.126 3.133 5.126Z" clip-rule="evenodd"/><path stroke="#212121" stroke-linecap="round" stroke-linejoin="round" stroke-width="1.234" d="M385.988 285.665c-.651 10.427-.854 13.854-.708 13.86.268.011 1.783-11.175 4.805-11.831 3.021-.657.139 12.646 1.822 10.155M395.942 273c2.221 24.726-5.368 24.457 7.888 21.375M392.6 284.308l7.153 1.373M407.127 287.119l.396 9.235M407.126 281.238l-.014 1.394M413.088 284.308c.036 9.406-.181 12.369 0 12.415.394.099 2.09-12.415 4.152-12.415 2.063 0 2.776 5.787 2.476 11.864M423.379 286.783c0 4.682.662 9.098 2.868 8.625 2.205-.473 2.849-5.202 2.326-9.145M432.909 290.922a93.4 93.4 0 0 1 6.49-2.069c0-.791-1.06-4.358-4.409-3.284-4.75 1.521-2.856 15.218 3.641 9.285"/><g clip-rule="evenodd" filter="url(#e)"><path fill="#fff" fill-rule="evenodd" d="m218.529 344.881-.67 26.171c-6.187.629-10.864.943-14.029.943-3.166 0-7.843-.314-14.03-.943l.784-17.237v-8.291c5.919.067 10.334.067 13.246 0 2.911-.067 7.811-.281 14.699-.643Z"/><path stroke="#212121" stroke-linecap="round" stroke-linejoin="round" stroke-width="1.234" d="m218.529 344.881-.67 26.171c-6.187.629-10.864.943-14.029.943-3.166 0-7.843-.314-14.03-.943l.784-17.237v-8.291c5.919.067 10.334.067 13.246 0 2.911-.067 7.811-.281 14.699-.643Z"/></g><path stroke="#212121" stroke-linecap="round" stroke-linejoin="round" stroke-width="1.234" d="M192.554 354.184c5.309-3.479 4.144 2.437 8.5 1.416 2.137-.5 4.07-1.655 6.181-2.257 2.08-.594 2.272 2.336 4.369 1.956 1.475-.267 2.78-1.112 4.17-1.668M192.597 361.527c4.862-2.503 5.253.833 8.945.833 3.619 0 4.5-3.184 8.945-.833"/><g clip-rule="evenodd" filter="url(#f)"><path fill="#fff" fill-rule="evenodd" d="m180.729 298.02-.67 26.171c-6.187.629-10.864.943-14.03.943-3.165 0-7.842-.314-14.029-.943l.783-17.237v-8.291c5.919.067 10.335.067 13.246 0 2.912-.067 7.812-.281 14.7-.643Z"/><path stroke="#212121" stroke-linecap="round" stroke-linejoin="round" stroke-width="1.234" d="m180.729 298.02-.67 26.171c-6.187.629-10.864.943-14.03.943-3.165 0-7.842-.314-14.029-.943l.783-17.237v-8.291c5.919.067 10.335.067 13.246 0 2.912-.067 7.812-.281 14.7-.643Z"/></g><path stroke="#212121" stroke-linecap="round" stroke-linejoin="round" stroke-width="1.234" d="M154.754 307.323c5.309-3.479 4.145 2.437 8.5 1.416 2.137-.5 4.071-1.654 6.181-2.257 2.08-.594 2.272 2.336 4.369 1.957 1.475-.268 2.78-1.113 4.17-1.669M154.796 314.666c4.862-2.503 5.254.833 8.945.833 3.62 0 4.5-3.184 8.945-.833"/><g clip-rule="evenodd" filter="url(#g)"><path fill="#fff" fill-rule="evenodd" d="m474.725 264.444-.67 26.171c-6.187.629-10.864.943-14.03.943-3.165 0-7.842-.314-14.029-.943l.784-17.236v-8.291c5.919.067 10.334.067 13.245 0 2.912-.067 7.812-.282 14.7-.644Z"/><path stroke="#212121" stroke-linecap="round" stroke-linejoin="round" stroke-width="1.234" d="m474.725 264.444-.67 26.171c-6.187.629-10.864.943-14.03.943-3.165 0-7.842-.314-14.029-.943l.784-17.236v-8.291c5.919.067 10.334.067 13.245 0 2.912-.067 7.812-.282 14.7-.644Z"/></g><path stroke="#212121" stroke-linecap="round" stroke-linejoin="round" stroke-width="1.234" d="M448.75 273.748c5.309-3.48 4.145 2.436 8.5 1.416 2.137-.501 4.071-1.655 6.181-2.257 2.08-.594 2.272 2.336 4.369 1.956 1.475-.267 2.78-1.112 4.17-1.669M448.793 281.091c4.862-2.503 5.253.832 8.945.832 3.62 0 4.5-3.184 8.945-.832"/><g clip-rule="evenodd" filter="url(#h)"><path fill="#fff" fill-rule="evenodd" d="m328.912 323.063-.67 26.17c-6.187.629-10.864.944-14.03.944-3.165 0-7.842-.315-14.029-.944l.784-17.236v-8.291c5.919.067 10.334.067 13.245 0 2.912-.067 7.812-.282 14.7-.643Z"/><path stroke="#212121" stroke-linecap="round" stroke-linejoin="round" stroke-width="1.234" d="m328.912 323.063-.67 26.17c-6.187.629-10.864.944-14.03.944-3.165 0-7.842-.315-14.029-.944l.784-17.236v-8.291c5.919.067 10.334.067 13.245 0 2.912-.067 7.812-.282 14.7-.643Z"/></g><path stroke="#212121" stroke-linecap="round" stroke-linejoin="round" stroke-width="1.234" d="M302.937 332.366c5.309-3.479 4.144 2.436 8.499 1.416 2.137-.501 4.071-1.655 6.181-2.257 2.08-.594 2.273 2.336 4.37 1.956 1.475-.267 2.78-1.112 4.17-1.668M302.98 339.709c4.862-2.503 5.253.833 8.945.833 3.62 0 4.5-3.184 8.945-.833"/><g filter="url(#i)"><path fill="#fff" d="M360.335 112H72.476C64.481 112 58 118.481 58 126.476V227.81c0 7.995 6.481 14.476 14.476 14.476h287.859c7.995 0 14.476-6.481 14.476-14.476V126.476c0-7.995-6.481-14.476-14.476-14.476Z"/></g><path stroke="#212121" stroke-linecap="round" stroke-linejoin="round" stroke-width="1.234" d="M90.037 126.476H75.719v104.5h14.318v-104.5Z"/><path fill="#212121" d="m84.801 138.864-2.132-3.209-1.714 2.475-1.715-8.16 7.276 4.264-2.78.779 2.085 3.117-1.02.734Z"/><path stroke="#212121" stroke-linecap="round" stroke-linejoin="round" stroke-width="1.234" d="m86.97 172.521-8.027 9.052h8.028v-9.052ZM79.487 218.363l7.323 8.258h-7.323v-8.258Z" clip-rule="evenodd"/><path stroke="#212121" stroke-linecap="round" stroke-linejoin="round" stroke-width="1.234" d="M83.333 154.068a4.092 4.092 0 1 0 0-8.185 4.092 4.092 0 0 0 0 8.185ZM83.147 195.282a4.093 4.093 0 1 0 0-8.186 4.093 4.093 0 0 0 0 8.186ZM87.085 159.661h-8.258v8.258h8.258v-8.258ZM87.379 201.176h-8.586v3.477h8.586v-3.477ZM87.379 206.831h-8.586v5.939h8.586v-5.939ZM185.057 142.34h-72.771v72.772h72.771V142.34ZM257.829 142.34h-72.772v72.772h72.772V142.34Z"/><path stroke="#212121" stroke-linecap="round" stroke-linejoin="round" stroke-width="1.234" d="M330.6 142.34h-72.772v72.772H330.6V142.34Z"/><path fill="#009AD3" fill-rule="evenodd" d="M209.883 192.617c6.693 5.613 18.891 5.01 23.739-3.78 3.24-5.873 5.542-24.994-15.067-24.994-14.15 0-17.448 21.415-8.672 28.774Z" clip-rule="evenodd"/><path stroke="#212121" stroke-linecap="round" stroke-linejoin="round" stroke-width="1.234" d="M209.546 177.562c2.367 1.982 7.018 1.982 9.07-1.589M223.913 176.278c2.047 2.236 5.394 1.985 7.432-.401M214.523 187.516c2.234-2.103 8.562-5.586 12.582-2.103"/><path fill="#42D880" fill-rule="evenodd" d="M295.988 194.734c14.19 1.071 17.72-11.24 17.72-16.206 0-7.803-9.345-15.343-18.294-14.64-13.595 1.069-16.361 11.697-14.946 18.525 1.311 6.321 7.845 11.742 15.52 12.321Z" clip-rule="evenodd"/><path stroke="#212121" stroke-linecap="round" stroke-linejoin="round" stroke-width="1.234" d="M288.262 181.924c4.488 9.31 13.079 6.436 16.244-.527M291.545 172.232l.216 5.572M300.21 172.647l-.373 4.771"/><path fill="#EB5757" fill-rule="evenodd" d="M130.996 188.202c5.956 15.561 29.206 9.025 32.311-4.842 1.474-6.582-1.483-20.643-17.816-20.12-13.088.419-17.31 17.606-14.495 24.962Z" clip-rule="evenodd"/><path stroke="#212121" stroke-linecap="round" stroke-linejoin="round" stroke-width="1.234" d="M139.882 173.048c1.593 1.862 2.929 2.88 4.522 4.742M152.24 177.79l4.759-3.608M139.882 187.301c3.402-2.255 11.655-3.941 15.337.417"/><g stroke="#212121" stroke-linecap="round" stroke-linejoin="round" stroke-width="1.234" filter="url(#j)"><path fill="#fff" fill-rule="evenodd" d="m240.525 124.917-.67 26.171c-6.187.629-10.863.943-14.029.943-3.166 0-7.843-.314-14.03-.943l.784-17.236v-8.292c5.919.067 10.334.067 13.246 0 2.911-.067 7.811-.281 14.699-.643Z" clip-rule="evenodd"/><path d="M214.55 134.22c5.309-3.479 4.145 2.437 8.5 1.417 2.137-.501 4.071-1.655 6.181-2.258 2.08-.593 2.272 2.336 4.369 1.957 1.475-.267 2.78-1.113 4.17-1.669M214.593 141.563c4.862-2.502 5.254.833 8.945.833 3.62 0 4.5-3.184 8.945-.833"/></g><g filter="url(#k)"><path fill="#fff" stroke="#212121" stroke-linecap="round" stroke-linejoin="round" stroke-width="1.234" d="m382.739 232.464-10.023-15.089-8.062 11.64-8.062-38.368 34.209 20.046-13.074 3.665 9.805 14.657-4.793 3.449Z"/></g><path stroke="#fff" stroke-linecap="round" stroke-linejoin="round" stroke-width="1.234" d="M261.572 396.233c12.077-22.278 15.753-31.315 14.113-57.006"/><path stroke="#fff" stroke-linecap="round" stroke-linejoin="round" stroke-width="1.234" d="M271.517 349.1c3.428-14.201 3.497-16.518 9.507-1.919"/><g filter="url(#l)"><path fill="#fff" d="M218.68 476.868c.082-.328.123-.492.123-.533h-.205c-3.521 0-6.183-3.235-5.487-6.715l.041-.123c6.388-30.874 8.681-67.153 8.722-67.521v-.082c.164-2.948 2.62-5.241 5.569-5.241h12.079c-.41-4.709 3.03-9.541 8.681-11.67a15.328 15.328 0 0 1 5.364-.983c4.709 0 8.517 2.375 9.95 6.142.778 2.129.737 4.381-.082 6.511h19.736a5.574 5.574 0 0 1 5.569 5.568v1.679c3.276 0 5.855 2.826 5.569 6.06v.123c-.041.369-3.276 37.876-6.347 68.381v.082a5.596 5.596 0 0 1-5.569 5.037h-58.185c-3.604 0-6.265-3.235-5.528-6.715Z"/><path fill="#FF77E6" d="M233.093 409.592s-2.293 36.688-8.803 68.299h57.939c3.112-30.833 6.347-68.299 6.347-68.299h-55.483Z"/><path fill="#fff" stroke="#212121" stroke-linecap="round" stroke-linejoin="round" stroke-miterlimit="10" stroke-width="1.228" d="M227.525 402.344s-2.293 36.689-8.804 68.3h57.94c6.347-31.284 6.347-68.3 6.347-68.3h-55.483Z"/><path fill="#212121" d="m250.823 398.823 3.235 5.691c.532.983 2.047.492 1.925-.614l-.737-6.756-4.423 1.679Z"/><path fill="#212121" d="M253.329 398.817c3.537-1.326 5.696-4.289 4.823-6.618-.874-2.329-4.448-3.143-7.985-1.818-3.536 1.326-5.695 4.289-4.822 6.618.873 2.33 4.448 3.143 7.984 1.818Z"/><path fill="#44E085" d="M252.43 396.556c3.536-1.326 5.695-4.288 4.822-6.618-.873-2.329-4.448-3.143-7.984-1.817-3.536 1.325-5.695 4.288-4.822 6.618.873 2.329 4.447 3.143 7.984 1.817Z"/><path stroke="#212121" stroke-linecap="round" stroke-linejoin="round" stroke-miterlimit="10" stroke-width="1.228" d="m258.726 402.385-7.698 4.259"/><path fill="#212121" d="M253.321 464.092a4.45 4.45 0 0 1 .246-.45c.041-.041.041-.082.082-.123 0 0-.205-.205-.451-.532-.491-.696-1.105-1.966-.04-3.235.122-.164.327-.328.532-.533 0 0-.205-.204-.451-.532-.491-.696-1.105-1.965-.041-3.235.123-.163.328-.327.533-.532 0 0-.205-.205-.451-.573-.614-.901-1.351-2.744 1.106-3.89 1.392-.655 8.64-.696 12.284-.655 1.269 0 2.088.041 2.088.041s-.082-.369-.123-.983c-.286-2.457-.819-8.722 1.843-8.681 2.498.041 2.662 3.726 3.481 10.483.286 2.456.573 5.323.737 8.025 2.497-14.045 3.071-28.908 3.071-28.908h-9.418a10.928 10.928 0 0 1-4.095 13.922c-5.118 3.234-11.915 1.678-15.15-3.44a11.004 11.004 0 0 1-.655-10.482h-19.123s-.163 1.801-.532 4.995l11.67-2.498c1.925-.409 3.521 1.311 3.153 3.112a2.311 2.311 0 0 1-.164.492c0 .041-.041.082-.082.123 0 0 .246.163.573.409.656.573 1.475 1.679.738 3.153-.082.205-.246.409-.41.614 0 0 .246.164.573.41.655.573 1.474 1.678.737 3.153-.082.204-.245.409-.409.614 0 0 .246.164.532.45.778.778 1.925 2.375-.286 4.054-1.229.942-8.313 2.457-11.875 3.194l-2.047.409s.122.369.327.942c.819 2.334 2.621 8.353.041 8.885-2.457.492-3.398-3.071-5.61-9.499-.041-.041-.041-.123-.081-.205a368.675 368.675 0 0 1-2.212 12.202h29.114c.082-.204.122-.45.245-.696Z"/><path fill="#4BC17E" d="M273.385 464.788h.082c.451-1.883.819-3.808 1.188-5.773v-.369c-.41 2.129-.819 4.177-1.27 6.142ZM273.876 450.662c-.818-6.757-.982-10.442-3.48-10.483-2.662-.041-2.129 6.224-1.843 8.681h1.352a.63.63 0 0 1 .614.614.63.63 0 0 1-.614.614h-2.785a.7.7 0 0 1-.532-.286c-3.644-.041-10.892 0-12.284.655-2.498 1.187-1.72 2.989-1.106 3.89.082-.041.164-.041.246-.041h1.474c.328 0 .614.286.614.614a.629.629 0 0 1-.614.614h-1.474a.772.772 0 0 1-.328-.082c-1.064 1.27-.45 2.539.041 3.235a.76.76 0 0 1 .287-.082h1.474a.63.63 0 0 1 .614.614.63.63 0 0 1-.614.615h-1.474a.772.772 0 0 1-.328-.082c-1.064 1.269-.45 2.538.041 3.235a.76.76 0 0 1 .287-.082h1.474c.328 0 .614.286.614.614a.63.63 0 0 1-.614.614h-1.474c-.041 0-.123 0-.164-.041-.123.246-.164.491-.205.737h20.228c.451-2.006.86-4.054 1.229-6.142a81.493 81.493 0 0 0-.656-8.025Z"/><path fill="#212121" d="M254.959 464.133a.63.63 0 0 0 .614-.614.629.629 0 0 0-.614-.614h-1.474c-.123 0-.205.041-.287.082.246.327.451.532.451.532-.041.041-.041.082-.082.123-.123.164-.164.286-.246.45.041 0 .123.041.164.041h1.474ZM254.959 459.834a.63.63 0 0 0 .615-.615.63.63 0 0 0-.615-.614h-1.474c-.123 0-.204.041-.286.082.245.328.45.532.45.532a3.232 3.232 0 0 0-.532.533c.082.082.204.082.327.082h1.515ZM254.959 455.575a.63.63 0 0 0 .614-.614.63.63 0 0 0-.614-.614h-1.474c-.082 0-.164.041-.246.041.246.327.451.573.451.573a3.311 3.311 0 0 0-.533.532c.082.082.205.082.328.082h1.474ZM267.121 450.129h2.784a.629.629 0 0 0 .614-.614.63.63 0 0 0-.614-.614h-1.351c.082.614.123.983.123.983s-.819 0-2.089-.041a.703.703 0 0 0 .533.286Z"/><path fill="#FF77E6" d="M226.297 452.791c2.211 6.428 3.153 9.991 5.609 9.499 2.58-.532.778-6.551-.041-8.885l-1.31.287h-.123c-.286 0-.532-.205-.614-.492-.082-.327.123-.655.491-.737l2.703-.573c.205-.041.409.041.573.164 3.563-.737 10.646-2.252 11.875-3.194 2.17-1.679 1.064-3.276.286-4.054l-.245.123-1.433.328h-.123a.65.65 0 0 1-.614-.492c-.082-.327.122-.655.491-.737l1.433-.327a.436.436 0 0 1 .328.041c.778-1.475-.082-2.58-.737-3.153a.375.375 0 0 1-.287.122l-1.433.328h-.123c-.287 0-.532-.205-.614-.491-.082-.328.123-.655.491-.737l1.433-.328a.436.436 0 0 1 .328.041c.778-1.474-.082-2.58-.737-3.153a.372.372 0 0 1-.287.123l-1.433.327h-.123c-.286 0-.532-.204-.614-.491-.082-.327.123-.655.491-.737l1.434-.327h.163c.369-1.802-1.269-3.481-3.153-3.112l-11.669 2.497c-.451 4.013-1.311 9.909-2.539 17.853.082.164.082.246.123.287Z"/><path fill="#212121" d="m243.412 435.388-1.433.328a.673.673 0 0 0-.491.737c.082.287.327.491.614.491h.123l1.433-.327c.123-.041.205-.082.286-.123-.327-.287-.573-.41-.573-.41.041-.041.041-.081.082-.122.082-.164.123-.328.164-.492-.082-.082-.123-.082-.205-.082ZM244.313 439.565l-1.433.328a.674.674 0 0 0-.492.737c.082.286.328.491.615.491h.123l1.433-.328a1.99 1.99 0 0 0 .286-.122c-.327-.287-.573-.41-.573-.41.164-.205.287-.409.41-.614-.123-.082-.246-.123-.369-.082ZM245.214 443.742l-1.433.327a.674.674 0 0 0-.492.737c.082.287.328.492.615.492h.122l1.434-.328c.081 0 .163-.041.245-.123-.286-.287-.532-.45-.532-.45.164-.205.287-.41.409-.614-.122-.041-.245-.082-.368-.041ZM233.012 451.931l-2.703.573a.673.673 0 0 0-.491.737c.082.287.327.492.614.492h.123l1.31-.287c-.205-.573-.328-.942-.328-.942l2.048-.409c-.164-.123-.369-.205-.573-.164Z"/><path fill="#FFCA49" d="M249.063 440.261a10.994 10.994 0 0 0 15.15 3.44 10.928 10.928 0 0 0 4.095-13.922h-6.265c-.082.327-.287.573-.573.778-.615.368-1.434.204-1.802-.41a1.45 1.45 0 0 1-.164-.368h-11.096a11.01 11.01 0 0 0 .655 10.482Zm5.323-3.399a.657.657 0 0 1 .86.205 4.043 4.043 0 0 0 5.568 1.27 4.044 4.044 0 0 0 1.27-5.569.655.655 0 0 1 .205-.86.654.654 0 0 1 .859.205c1.556 2.456.819 5.732-1.637 7.288-.86.533-1.843.819-2.785.819-1.76 0-3.48-.86-4.463-2.457-.246-.327-.164-.737.123-.901Zm-2.252-3.521c.614-.368 1.433-.205 1.801.41.369.614.205 1.433-.409 1.801-.614.369-1.433.205-1.802-.409a1.28 1.28 0 0 1 .41-1.802Z"/><path fill="#212121" d="M253.538 435.555a1.31 1.31 0 1 0-1.396-2.217 1.31 1.31 0 0 0 1.396 2.217ZM261.47 430.557c.287-.164.491-.451.573-.778h-2.498c.041.123.082.245.164.368.328.573 1.147.778 1.761.41ZM254.181 437.722c.983 1.597 2.703 2.457 4.464 2.457.941 0 1.924-.246 2.784-.819 2.457-1.556 3.194-4.832 1.638-7.288-.164-.287-.573-.369-.86-.205-.287.164-.369.573-.205.86 1.188 1.883.614 4.381-1.269 5.569a4.044 4.044 0 0 1-5.569-1.27c-.164-.286-.573-.368-.86-.205-.205.205-.286.615-.123.901ZM240.001 410.277a.541.541 0 0 1 .104.264.727.727 0 0 1-.009.113.5.5 0 0 1-.01.094c-.006.069-.047.135-.122.198a1.035 1.035 0 0 1-.17.094.738.738 0 0 1-.123.029c-.037 0-.081.003-.132.009a.367.367 0 0 1-.122.019h-.556l-1.97.009v.029l-.009 1.536h.16c.063 0 .138-.003.226-.01h.669c.201 0 .421.004.66.01h.056c.07 0 .139.003.208.009h.226c.069.007.138.016.207.029.07.006.139.022.208.047a.43.43 0 0 1 .245.179.389.389 0 0 1 .104.254v.113a.348.348 0 0 1-.019.104c-.007.05-.047.113-.123.189a.359.359 0 0 1-.179.084.926.926 0 0 1-.113.038l-.123.019-.132.019h-.565l-1.734.009-.029 2.187v.075a.51.51 0 0 1-.009.095.446.446 0 0 1-.009.084 1.362 1.362 0 0 0-.066.198.563.563 0 0 1-.123.179.614.614 0 0 1-.254.104.704.704 0 0 1-.481-.056.802.802 0 0 1-.094-.066.449.449 0 0 1-.066-.114.139.139 0 0 1-.019-.056l-.029-.057a.297.297 0 0 1-.037-.094l-.019-.104a.507.507 0 0 0-.009-.094.5.5 0 0 0-.01-.094.636.636 0 0 1 0-.151v-.151l.01-.735.009-1.357c.006-.201.009-.405.009-.613v-.641a22.99 22.99 0 0 1-.009-.603c.006-.176.016-.368.028-.575v-.047c.007-.069.01-.132.01-.189 0-.062.006-.125.018-.188.013-.138.044-.261.095-.368a.434.434 0 0 1 .188-.226.585.585 0 0 1 .424-.075v-.01h.679c.075-.006.176-.009.302-.009.502-.006.999-.006 1.489 0h.047c.069.006.138.009.207.009.076 0 .151.004.227.01.069 0 .138.009.207.028.069.013.138.031.207.057a.447.447 0 0 1 .245.16Zm3.582 5.099c.075-.019.151-.031.226-.038a.472.472 0 0 1 .217.029.35.35 0 0 1 .169.131.396.396 0 0 1 .066.246.44.44 0 0 1-.056.216.836.836 0 0 1-.142.189 1.11 1.11 0 0 1-.188.151 2.754 2.754 0 0 1-.83.282 3.09 3.09 0 0 1-.725.048 3.087 3.087 0 0 1-.981-.198 1.508 1.508 0 0 1-.725-.613 2.174 2.174 0 0 1-.292-.924 3.206 3.206 0 0 1 .047-.961c.069-.365.185-.66.348-.886.17-.233.371-.418.604-.556.282-.164.6-.248.952-.255a2.32 2.32 0 0 1 1.008.208c.214.094.405.223.575.386.17.157.299.349.387.575a.858.858 0 0 1 .056.207 1.746 1.746 0 0 1 .038.528.905.905 0 0 1-.047.236.743.743 0 0 1-.142.264.512.512 0 0 1-.217.141 1.303 1.303 0 0 1-.32.066c-.119.006-.264.013-.434.019-.15.006-.292.009-.424.009h-.405a10.017 10.017 0 0 0-.434-.009c-.144-.006-.307-.013-.49-.019a.521.521 0 0 0 .047.33.776.776 0 0 0 .227.226c.094.057.201.101.32.132.12.032.236.05.349.057.213.012.418-.003.613-.047.194-.051.395-.107.603-.17Zm-.406-1.829a1.172 1.172 0 0 0-.377-.301.693.693 0 0 0-.32-.057c-.107 0-.211.016-.311.047a.876.876 0 0 0-.462.283.833.833 0 0 0-.066.094 2.918 2.918 0 0 0-.094.142.868.868 0 0 0-.057.141c-.012.044-.006.066.019.066h1.848a.652.652 0 0 0-.048-.217.694.694 0 0 0-.132-.198Zm5.183 1.829c.075-.019.151-.031.226-.038a.472.472 0 0 1 .217.029.35.35 0 0 1 .169.131.396.396 0 0 1 .066.246.44.44 0 0 1-.056.216.862.862 0 0 1-.141.189 1.16 1.16 0 0 1-.189.151 2.76 2.76 0 0 1-.829.282c-.233.044-.475.06-.726.048a3.081 3.081 0 0 1-.98-.198 1.506 1.506 0 0 1-.726-.613 2.174 2.174 0 0 1-.292-.924 3.206 3.206 0 0 1 .047-.961c.069-.365.185-.66.349-.886.169-.233.37-.418.603-.556.283-.164.6-.248.952-.255.352-.006.688.063 1.008.208.214.094.406.223.575.386.17.157.299.349.387.575a.814.814 0 0 1 .056.207 1.938 1.938 0 0 1 .038.528.866.866 0 0 1-.047.236.743.743 0 0 1-.142.264.509.509 0 0 1-.216.141 1.312 1.312 0 0 1-.321.066c-.119.006-.264.013-.433.019-.151.006-.293.009-.425.009h-.405a10.004 10.004 0 0 0-.433-.009c-.145-.006-.308-.013-.491-.019a.521.521 0 0 0 .048.33.772.772 0 0 0 .226.226c.094.057.201.101.32.132.12.032.236.05.349.057a2.21 2.21 0 0 0 .613-.047c.194-.051.395-.107.603-.17Zm-.405-1.829a1.193 1.193 0 0 0-.377-.301.7.7 0 0 0-.321-.057c-.107 0-.21.016-.311.047a.876.876 0 0 0-.462.283.833.833 0 0 0-.066.094 2.918 2.918 0 0 0-.094.142.868.868 0 0 0-.057.141c-.012.044-.006.066.019.066h1.848a.652.652 0 0 0-.048-.217.71.71 0 0 0-.131-.198Zm4.861-3.468a.587.587 0 0 1 .312-.01.54.54 0 0 1 .386.359.824.824 0 0 1 .057.311c.006.314.006.559 0 .735v4.204c0 .226-.013.411-.038.556a.628.628 0 0 1-.113.311.39.39 0 0 1-.236.141 1.527 1.527 0 0 1-.424.047h-.641c-.679 0-1.216-.16-1.612-.48-.389-.321-.597-.83-.622-1.527a2.228 2.228 0 0 1 .113-.83c.088-.251.217-.465.387-.641.176-.182.389-.32.641-.414.257-.101.549-.148.876-.142h.519v-1.979a1.2 1.2 0 0 1 .028-.273.483.483 0 0 1 .113-.227.517.517 0 0 1 .254-.141Zm-1.64 5.231c.132.182.371.283.717.302.069.006.135.009.198.009.063-.006.119-.016.169-.028a1.28 1.28 0 0 0 .161-.029v-1.743a4.422 4.422 0 0 0-.604-.066c-.176-.013-.351.05-.527.188a.726.726 0 0 0-.217.292c-.05.114-.079.236-.085.368-.006.126.006.251.038.377a.924.924 0 0 0 .15.33Zm3.358-4.6a.848.848 0 0 1 .207-.546c.132-.138.317-.176.556-.113a.457.457 0 0 1 .245.141.48.48 0 0 1 .113.226.935.935 0 0 1 .038.274v1.583c-.006.05-.009.101-.009.151a.911.911 0 0 1 .009.122v.123h.434c.069 0 .128-.003.179-.01.345 0 .641.051.886.151.251.101.452.242.603.424.157.176.27.39.339.641.076.245.11.516.104.811a2.413 2.413 0 0 1-.17.905 1.633 1.633 0 0 1-.452.622 1.94 1.94 0 0 1-.707.367c-.27.076-.575.114-.914.114-.39 0-.685-.004-.886-.01-.201-.006-.346-.063-.434-.17-.082-.106-.126-.292-.132-.556-.006-.264-.009-.65-.009-1.159v-1.451c.006-.478.006-.959 0-1.443 0-.062-.003-.128-.01-.198v-.546c0-.126.003-.277.01-.453Zm1.762 4.93c.346-.019.585-.113.717-.283.069-.094.122-.207.16-.339a1.25 1.25 0 0 0 .047-.396 1.096 1.096 0 0 0-.085-.377.68.68 0 0 0-.217-.311.83.83 0 0 0-.264-.16.815.815 0 0 0-.273-.066 1.57 1.57 0 0 0-.302-.01c-.106 0-.229.003-.367.01v1.131l-.019.782.198.019c.119.012.254.012.405 0Zm3.804-2.941c.189-.094.387-.16.594-.198a1.84 1.84 0 0 1 .613-.028c.207.019.405.072.593.16a1.783 1.783 0 0 1 .905.896c.088.194.151.411.189.65.025.163.066.314.122.452.057.139.117.277.179.415.069.138.132.277.189.415.063.138.113.283.151.433a.7.7 0 0 1-.038.424c-.05.132-.157.214-.321.246a.516.516 0 0 1-.273-.019.884.884 0 0 1-.226-.151 2.025 2.025 0 0 1-.189-.217l-.141-.226a1.841 1.841 0 0 1-.471.443c-.17.1-.374.166-.613.198a3.04 3.04 0 0 1-.575.019 3.015 3.015 0 0 1-.584-.104 1.471 1.471 0 0 1-.669-.358 1.924 1.924 0 0 1-.396-.603 2.261 2.261 0 0 1-.142-.745 2.761 2.761 0 0 1 .095-.782c.088-.34.22-.616.395-.83.176-.213.381-.377.613-.49Zm.236 1.103a.981.981 0 0 0-.208.311c-.05.119-.081.245-.094.377-.006.132.006.264.038.396.031.132.082.248.151.349a.724.724 0 0 0 .32.226c.151.056.308.091.471.103a.675.675 0 0 0 .491-.15c.144-.113.251-.255.32-.424.075-.176.11-.362.104-.557a1.09 1.09 0 0 0-.161-.546.674.674 0 0 0-.301-.264.887.887 0 0 0-.387-.085 1.07 1.07 0 0 0-.414.066.828.828 0 0 0-.33.198Zm7.589-.764c.05.088.075.183.075.283a.485.485 0 0 1-.066.283.47.47 0 0 1-.245.236.57.57 0 0 1-.339.009.429.429 0 0 1-.151-.066 2.875 2.875 0 0 0-.141-.094.79.79 0 0 0-.16-.104.667.667 0 0 0-.227-.066 1.345 1.345 0 0 0-.311 0 1.06 1.06 0 0 0-.292.076.776.776 0 0 0-.33.32 1.265 1.265 0 0 0-.16.452c-.025.158-.022.318.01.481a.91.91 0 0 0 .207.415c.075.088.173.16.292.217a1.2 1.2 0 0 0 .358.103c.107.013.214.013.321 0 .107-.019.21-.044.311-.075.075-.032.16-.072.254-.123a.736.736 0 0 1 .274-.103c.113 0 .201.031.263.094a.52.52 0 0 1 .142.481.479.479 0 0 1-.104.245 1.298 1.298 0 0 1-.32.273 1.814 1.814 0 0 1-.905.264c-.182.006-.355 0-.519-.019a3.485 3.485 0 0 1-.471-.113 1.95 1.95 0 0 1-.697-.424 2.102 2.102 0 0 1-.424-.632 2.238 2.238 0 0 1-.161-.744 2.37 2.37 0 0 1 .095-.783c.069-.245.154-.452.254-.622.107-.169.229-.308.368-.414a1.7 1.7 0 0 1 .48-.264 4.26 4.26 0 0 1 .585-.179c.22-.044.452-.044.697 0 .245.044.465.125.66.245.151.081.276.198.377.348Zm2.723 1.461c.138.145.239.252.302.321a1.5 1.5 0 0 1 .141.141.356.356 0 0 0 .066.057.316.316 0 0 1 .066.056l.151.151c.069.063.173.167.311.311.113.113.204.245.273.396.076.145.069.302-.019.471a.503.503 0 0 1-.169.189.392.392 0 0 1-.208.038.736.736 0 0 1-.226-.066 1.478 1.478 0 0 1-.226-.142 3.219 3.219 0 0 1-.415-.367 5.384 5.384 0 0 0-.32-.33 1.212 1.212 0 0 1-.104-.113.142.142 0 0 0-.038-.029l-.037-.037a2.629 2.629 0 0 0-.142-.132c-.05-.044-.1-.091-.15-.142v.368c0 .069.003.119.009.151 0 .063-.003.11-.009.141a.747.747 0 0 0-.029.198l-.019.094a.558.558 0 0 1-.028.085.08.08 0 0 1-.019.028v.029a.09.09 0 0 1-.019.028.072.072 0 0 1-.009.028.549.549 0 0 1-.151.179.641.641 0 0 1-.443.057.421.421 0 0 1-.217-.104.275.275 0 0 1-.113-.16l-.037-.094a.508.508 0 0 0-.029-.104.24.24 0 0 1-.018-.085V410.56c0-.038.003-.076.009-.113.006-.038.012-.073.019-.104.012-.038.025-.072.037-.104a.455.455 0 0 1 .095-.151.3.3 0 0 1 .094-.066c.038-.018.072-.034.104-.047a.549.549 0 0 1 .103-.009.532.532 0 0 1 .387.066.503.503 0 0 1 .179.217c.05.119.075.235.075.348.007.063.013.161.019.292.006.126.01.22.01.283v.038c.006.207.009.405.009.594v.612c-.006.22-.009.431-.009.632v.688c.05-.05.1-.097.15-.141.051-.044.098-.092.142-.142a.739.739 0 0 0 .075-.066l.104-.103c.082-.082.188-.192.32-.33.132-.145.27-.271.415-.377.157-.113.308-.183.452-.208.151-.025.277.051.377.226.088.17.095.33.019.481-.069.145-.16.28-.273.405-.138.145-.242.252-.311.321-.069.063-.119.11-.151.141a.411.411 0 0 1-.066.047.464.464 0 0 0-.066.057l-.141.141c-.063.063-.164.167-.302.311ZM242.329 420.198a.92.92 0 0 1 0 .377l-.037.189a2.28 2.28 0 0 1-.029.179l-.009.038c-.088.389-.189.801-.302 1.234-.106.428-.204.833-.292 1.216-.075.314-.154.66-.235 1.037-.082.377-.167.723-.255 1.037a5.67 5.67 0 0 1-.104.32 2.216 2.216 0 0 1-.122.321 1.19 1.19 0 0 1-.16.254.51.51 0 0 1-.198.151c-.076.038-.157.05-.245.038a.588.588 0 0 1-.274-.113.967.967 0 0 1-.339-.443 5.607 5.607 0 0 0-.217-.519 1.994 1.994 0 0 1-.113-.292c-.05-.151-.104-.314-.16-.49a16.713 16.713 0 0 0-.17-.518 2.864 2.864 0 0 0-.132-.377 6.487 6.487 0 0 0-.169.471c-.057.176-.11.349-.161.518-.05.17-.097.324-.141.462l-.085.292c-.05.126-.107.264-.17.415-.056.151-.128.28-.216.386a.557.557 0 0 1-.302.208c-.119.037-.261.003-.424-.104a.6.6 0 0 1-.264-.32 11.861 11.861 0 0 0-.094-.255 1.656 1.656 0 0 1-.076-.254l-.188-.707-.387-1.518-.15-.594a9.367 9.367 0 0 0-.161-.64 8.717 8.717 0 0 1-.084-.311c-.019-.107-.041-.22-.066-.34a8.622 8.622 0 0 0-.076-.424 24.474 24.474 0 0 0-.094-.547 2.398 2.398 0 0 1-.028-.188c0-.063.006-.126.019-.189a.395.395 0 0 1 .131-.245.376.376 0 0 1 .114-.075.864.864 0 0 1 .141-.047.743.743 0 0 1 .236-.038.45.45 0 0 1 .235.075.357.357 0 0 1 .132.123l.113.198c.013.044.025.085.038.122.013.032.025.066.038.104.012.044.022.085.028.123l.019.094c.056.327.125.644.207.952.082.308.157.603.226.886l.095.424c.037.163.075.336.113.518.037.176.075.346.113.509.038.164.075.293.113.387l.245-.848c.088-.283.182-.569.283-.858.05-.151.1-.286.151-.405a1.28 1.28 0 0 1 .188-.311.48.48 0 0 1 .236-.161.503.503 0 0 1 .311.029c.107.044.201.138.283.282.081.145.153.292.216.443.057.139.11.286.161.443.056.151.109.302.16.453l.16.414c.05.132.101.245.151.34a15.492 15.492 0 0 0 .141-.603c.032-.126.06-.249.085-.368.025-.119.05-.229.075-.33.082-.339.167-.679.255-1.018.088-.345.173-.685.254-1.018l.048-.16a.261.261 0 0 0 .018-.094c.007-.038.016-.079.029-.123.012-.038.025-.072.037-.104.013-.037.025-.078.038-.122l.038-.094a.575.575 0 0 1 .066-.104.256.256 0 0 1 .066-.075.524.524 0 0 1 .075-.048.478.478 0 0 1 .226-.075c.082 0 .161.013.236.038a.63.63 0 0 1 .273.122.404.404 0 0 1 .113.245Zm5.842 5.656c.006.037.01.075.01.113a.608.608 0 0 1 .009.113.354.354 0 0 1-.066.207.483.483 0 0 1-.075.094.442.442 0 0 1-.113.066.776.776 0 0 1-.5.095.658.658 0 0 1-.236-.123c-.012-.012-.022-.019-.028-.019a.121.121 0 0 1-.019-.028l-.019-.019a.059.059 0 0 0-.028-.028.974.974 0 0 1-.075-.085l-.057-.094a.332.332 0 0 0-.047-.085.687.687 0 0 0-.047-.094.645.645 0 0 0-.038-.066.39.39 0 0 1-.028-.076.577.577 0 0 1-.047-.15l-.198-.462c-.434 0-.867.003-1.301.009-.427 0-.858-.003-1.291-.009l-.198.462a.327.327 0 0 0-.028.075c0 .025-.007.05-.019.075l-.038.076a.536.536 0 0 1-.028.066l-.057.094a1.143 1.143 0 0 1-.047.085.589.589 0 0 1-.047.094.974.974 0 0 1-.075.085.065.065 0 0 0-.029.028l-.018.019a.121.121 0 0 1-.019.028c-.007 0-.016.007-.029.019a.653.653 0 0 1-.235.123.775.775 0 0 1-.5-.095.442.442 0 0 1-.113-.066.483.483 0 0 1-.075-.094.354.354 0 0 1-.066-.207v-.113a1.48 1.48 0 0 1 .066-.283l.028-.085 1.96-4.826.057-.15a.521.521 0 0 1 .047-.104.452.452 0 0 0 .047-.113 1.417 1.417 0 0 1 .17-.321l.075-.094a.41.41 0 0 1 .161-.123.901.901 0 0 1 .301-.047c.12 0 .223.016.311.047a.407.407 0 0 1 .16.123c.044.057.092.123.142.198.038.063.072.135.103.217a.492.492 0 0 0 .048.113.585.585 0 0 1 .047.104l.056.15 1.961 4.826.028.085c.019.056.035.113.047.17Zm-2.234-2.31-.254-.565c-.082-.195-.17-.393-.264-.594l-.075-.17-.076-.179a3.11 3.11 0 0 1-.066.179l-.075.17c-.094.201-.186.399-.274.594-.081.195-.163.383-.245.565l-.169.415h1.668l-.17-.415Zm8.137 2.234c-.007.107-.022.22-.048.339a.437.437 0 0 1-.179.293.492.492 0 0 1-.254.113.733.733 0 0 1-.283-.019.95.95 0 0 1-.254-.094.688.688 0 0 1-.198-.179 10.242 10.242 0 0 1-.594-.811 59.926 59.926 0 0 0-.537-.848l-.792-1.197a15.69 15.69 0 0 1-.339-.566 7.787 7.787 0 0 0-.368-.594l-.028 3.601v.085c0 .1-.019.201-.057.301a.533.533 0 0 1-.17.245.534.534 0 0 1-.245.104.63.63 0 0 1-.395-.028.645.645 0 0 1-.245-.208.909.909 0 0 1-.123-.301 1.283 1.283 0 0 1-.009-.349v-.16l.018-.735.01-1.367c.006-.201.009-.405.009-.613v-.65c-.006-.27-.006-.556 0-.858.013-.301.025-.584.038-.848a.905.905 0 0 1 .104-.368c.025-.088.091-.163.198-.226a.628.628 0 0 1 .263-.085.894.894 0 0 1 .293.01.634.634 0 0 1 .094.047.589.589 0 0 1 .094.047c.032.025.06.05.085.075a.62.62 0 0 1 .085.085c.031.032.06.066.085.104l.075.094c.019.038.038.072.057.104.018.031.04.063.066.094l.103.151 2.178 3.431v-.622c0-.201-.004-.406-.01-.613 0-.214-.003-.434-.009-.66v-.848c.006-.302.015-.584.028-.848 0-.107.031-.23.094-.368a.413.413 0 0 1 .16-.198.7.7 0 0 1 .255-.103.71.71 0 0 1 .283 0 .537.537 0 0 1 .245.113.482.482 0 0 1 .103.15.824.824 0 0 1 .057.217c.019.088.028.167.028.236v2.403l.019 2.404c0 .088.003.176.01.264.006.081.006.166 0 .254Zm5.966-5.664a.388.388 0 0 1 .103.254.914.914 0 0 1-.009.123.549.549 0 0 1-.009.103.453.453 0 0 1-.123.198.523.523 0 0 1-.207.085.888.888 0 0 1-.132.028 1.562 1.562 0 0 0-.142.029.976.976 0 0 1-.132.009h-.622a6.392 6.392 0 0 1-.339.009h-.32c.006.195.009.406.009.632 0 .22-.003.477-.009.773 0 .295-.004.638-.01 1.027v2.074c0 .063.003.11.01.141v.076a.457.457 0 0 1-.01.075 1.519 1.519 0 0 0-.028.198.43.43 0 0 1-.038.179c-.025.025-.038.044-.038.056l-.028.057a.475.475 0 0 1-.179.179.675.675 0 0 1-.462.047.484.484 0 0 1-.245-.085.578.578 0 0 1-.122-.169.514.514 0 0 1-.066-.198.56.56 0 0 1-.029-.179v-4.845h-.622a29.618 29.618 0 0 1-.377-.019 2.81 2.81 0 0 1-.245-.019l-.179-.028a2.05 2.05 0 0 1-.188-.038.647.647 0 0 1-.311-.179.41.41 0 0 1-.104-.273v-.113c0-.038.006-.072.019-.104a.31.31 0 0 1 .151-.188.706.706 0 0 1 .113-.066.617.617 0 0 1 .16-.066 1.434 1.434 0 0 1 .434-.066h.782c.201 0 .411-.003.631-.01.365-.006.726-.006 1.084 0 .365 0 .726.007 1.084.019.082.006.16.016.236.028.075.013.151.035.226.066.057.019.11.044.16.076.051.025.091.06.123.104Zm2.145.838-.019 1.48h.377a27.527 27.527 0 0 1 1.357 0h.047c.076 0 .148.003.217.01h.217c.075.006.148.018.217.037.069.013.138.029.207.047a.645.645 0 0 1 .264.17.437.437 0 0 1 .094.273v.114a.266.266 0 0 1-.019.103.319.319 0 0 1-.122.189c-.032.044-.091.075-.179.094a1.126 1.126 0 0 1-.245.047 1.247 1.247 0 0 1-.264.028h-.443l-1.744.01-.019 1.847 1.876.019h.584a.79.79 0 0 1 .123.009c.05.013.094.022.132.029.044 0 .085.006.122.019a.543.543 0 0 1 .189.103.45.45 0 0 1 .122.198c.007.032.01.066.01.104a.302.302 0 0 1 0 .104c0 .1-.032.191-.095.273a.51.51 0 0 1-.263.17 1.101 1.101 0 0 1-.434.084 2.15 2.15 0 0 1-.217.01c-.075 0-.147.003-.217.009h-.056c-.49.013-.999.013-1.527 0-.126 0-.226-.003-.302-.009h-.631a.545.545 0 0 1-.358-.076.443.443 0 0 1-.161-.179c-.018-.019-.028-.037-.028-.056a.097.097 0 0 0-.019-.029.121.121 0 0 1-.019-.028.559.559 0 0 1-.037-.198l-.019-.094a.43.43 0 0 0-.01-.094V425.543a.289.289 0 0 0 .01-.076v-.735l.019-1.357v-1.857l.019-.575v-.047c.006-.069.009-.132.009-.189.006-.062.009-.125.009-.188a.888.888 0 0 1 .104-.368c.025-.05.05-.094.076-.132a.378.378 0 0 1 .122-.094.557.557 0 0 1 .405-.075v-.01H262.354a4.18 4.18 0 0 1 .311-.009 25.807 25.807 0 0 1 1.414 0h.038c.069.006.141.009.217.009.075 0 .147.003.217.01.069 0 .138.009.207.028.069.012.138.031.207.056a.566.566 0 0 1 .264.161.482.482 0 0 1 .085.264v.113a.243.243 0 0 1-.019.094c-.006.063-.044.129-.113.198a1.143 1.143 0 0 0-.085.047.306.306 0 0 1-.094.047.651.651 0 0 1-.123.028.73.73 0 0 0-.113.01.61.61 0 0 1-.141.019h-.556l-1.885.009v.028Zm8.839 1.754c.013.207.01.421-.009.64-.013.22-.035.434-.066.641a3.796 3.796 0 0 1-.349 1.047c-.17.339-.418.628-.745.867a2.984 2.984 0 0 1-1.159.518 8.34 8.34 0 0 1-1.291.16 3.424 3.424 0 0 1-.443.01c-.145 0-.286-.016-.424-.047a.51.51 0 0 1-.33-.179.598.598 0 0 1-.047-.095.589.589 0 0 1-.047-.094.782.782 0 0 0-.029-.113 1.105 1.105 0 0 0-.019-.085V420.387c0-.038.007-.076.019-.113a.858.858 0 0 1 .057-.217.308.308 0 0 1 .103-.16.336.336 0 0 1 .114-.066 1.1 1.1 0 0 1 .103-.047.169.169 0 0 1 .113 0 .238.238 0 0 0 .142-.029l1.574.038c.414.013.785.11 1.112.292.327.176.606.402.839.679.232.276.415.587.547.933.131.339.21.675.235 1.009Zm-1.753 1.79c.119-.188.207-.405.264-.65a2.96 2.96 0 0 0 .075-.745 3.256 3.256 0 0 0-.103-.744 2.451 2.451 0 0 0-.264-.651 1.09 1.09 0 0 0-.34-.339 1.603 1.603 0 0 0-.461-.198 2.868 2.868 0 0 0-.547-.103 5.555 5.555 0 0 0-.556-.029c.006.182.009.358.009.528v.537c-.006.226-.009.446-.009.66v2.545c.195-.006.38-.016.556-.028.182-.019.355-.057.518-.113.17-.057.324-.136.462-.236.145-.107.277-.251.396-.434Z"/></g><defs><filter id="a" width="426.117" height="315.737" x="179.147" y=".917" color-interpolation-filters="sRGB" filterUnits="userSpaceOnUse"><feFlood flood-opacity="0" result="BackgroundImageFix"/><feColorMatrix in="SourceAlpha" result="hardAlpha" values="0 0 0 0 0 0 0 0 0 0 0 0 0 0 0 0 0 0 127 0"/><feMorphology in="SourceAlpha" radius=".954" result="effect1_dropShadow_367_3384"/><feOffset dx="9.539" dy="14.309"/><feGaussianBlur stdDeviation="33.865"/><feComposite in2="hardAlpha" operator="out"/><feColorMatrix values="0 0 0 0 0 0 0 0 0 0 0 0 0 0 0 0 0 0 0.18 0"/><feBlend in2="BackgroundImageFix" mode="multiply" result="effect1_dropShadow_367_3384"/><feBlend in="SourceGraphic" in2="effect1_dropShadow_367_3384" result="shape"/></filter><filter id="b" width="162.781" height="161.208" x="453.018" y="148.917" color-interpolation-filters="sRGB" filterUnits="userSpaceOnUse"><feFlood flood-opacity="0" result="BackgroundImageFix"/><feColorMatrix in="SourceAlpha" result="hardAlpha" values="0 0 0 0 0 0 0 0 0 0 0 0 0 0 0 0 0 0 127 0"/><feMorphology in="SourceAlpha" radius=".954" result="effect1_dropShadow_367_3384"/><feOffset dx="9.539" dy="14.309"/><feGaussianBlur stdDeviation="33.865"/><feComposite in2="hardAlpha" operator="out"/><feColorMatrix values="0 0 0 0 0 0 0 0 0 0 0 0 0 0 0 0 0 0 0.1 0"/><feBlend in2="BackgroundImageFix" mode="multiply" result="effect1_dropShadow_367_3384"/><feColorMatrix in="SourceAlpha" result="hardAlpha" values="0 0 0 0 0 0 0 0 0 0 0 0 0 0 0 0 0 0 127 0"/><feMorphology in="SourceAlpha" radius=".954" result="effect2_dropShadow_367_3384"/><feOffset dx="2" dy="2"/><feGaussianBlur stdDeviation="3"/><feComposite in2="hardAlpha" operator="out"/><feColorMatrix values="0 0 0 0 0 0 0 0 0 0 0 0 0 0 0 0 0 0 0.1 0"/><feBlend in2="effect1_dropShadow_367_3384" mode="multiply" result="effect2_dropShadow_367_3384"/><feBlend in="SourceGraphic" in2="effect2_dropShadow_367_3384" result="shape"/></filter><filter id="c" width="39.323" height="37.75" x="367.898" y="71.174" color-interpolation-filters="sRGB" filterUnits="userSpaceOnUse"><feFlood flood-opacity="0" result="BackgroundImageFix"/><feColorMatrix in="SourceAlpha" result="hardAlpha" values="0 0 0 0 0 0 0 0 0 0 0 0 0 0 0 0 0 0 127 0"/><feMorphology in="SourceAlpha" radius=".954" result="effect1_dropShadow_367_3384"/><feOffset dx="2" dy="2"/><feGaussianBlur stdDeviation="3"/><feComposite in2="hardAlpha" operator="out"/><feColorMatrix values="0 0 0 0 0 0 0 0 0 0 0 0 0 0 0 0 0 0 0.1 0"/><feBlend in2="BackgroundImageFix" mode="multiply" result="effect1_dropShadow_367_3384"/><feBlend in="SourceGraphic" in2="effect1_dropShadow_367_3384" result="shape"/></filter><filter id="d" width="426.117" height="269.594" x="109.98" y="171.917" color-interpolation-filters="sRGB" filterUnits="userSpaceOnUse"><feFlood flood-opacity="0" result="BackgroundImageFix"/><feColorMatrix in="SourceAlpha" result="hardAlpha" values="0 0 0 0 0 0 0 0 0 0 0 0 0 0 0 0 0 0 127 0"/><feMorphology in="SourceAlpha" radius=".954" result="effect1_dropShadow_367_3384"/><feOffset dx="9.539" dy="14.309"/><feGaussianBlur stdDeviation="33.865"/><feComposite in2="hardAlpha" operator="out"/><feColorMatrix values="0 0 0 0 0 0 0 0 0 0 0 0 0 0 0 0 0 0 0.18 0"/><feBlend in2="BackgroundImageFix" mode="multiply" result="effect1_dropShadow_367_3384"/><feBlend in="SourceGraphic" in2="effect1_dropShadow_367_3384" result="shape"/></filter><filter id="e" width="40.054" height="38.44" x="186.138" y="341.218" color-interpolation-filters="sRGB" filterUnits="userSpaceOnUse"><feFlood flood-opacity="0" result="BackgroundImageFix"/><feColorMatrix in="SourceAlpha" result="hardAlpha" values="0 0 0 0 0 0 0 0 0 0 0 0 0 0 0 0 0 0 127 0"/><feMorphology in="SourceAlpha" radius=".954" result="effect1_dropShadow_367_3384"/><feOffset dx="2" dy="2"/><feGaussianBlur stdDeviation="3"/><feComposite in2="hardAlpha" operator="out"/><feColorMatrix values="0 0 0 0 0 0 0 0 0 0 0 0 0 0 0 0 0 0 0.1 0"/><feBlend in2="BackgroundImageFix" mode="multiply" result="effect1_dropShadow_367_3384"/><feBlend in="SourceGraphic" in2="effect1_dropShadow_367_3384" result="shape"/></filter><filter id="f" width="40.054" height="38.44" x="148.337" y="294.357" color-interpolation-filters="sRGB" filterUnits="userSpaceOnUse"><feFlood flood-opacity="0" result="BackgroundImageFix"/><feColorMatrix in="SourceAlpha" result="hardAlpha" values="0 0 0 0 0 0 0 0 0 0 0 0 0 0 0 0 0 0 127 0"/><feMorphology in="SourceAlpha" radius=".954" result="effect1_dropShadow_367_3384"/><feOffset dx="2" dy="2"/><feGaussianBlur stdDeviation="3"/><feComposite in2="hardAlpha" operator="out"/><feColorMatrix values="0 0 0 0 0 0 0 0 0 0 0 0 0 0 0 0 0 0 0.1 0"/><feBlend in2="BackgroundImageFix" mode="multiply" result="effect1_dropShadow_367_3384"/><feBlend in="SourceGraphic" in2="effect1_dropShadow_367_3384" result="shape"/></filter><filter id="g" width="163.512" height="161.898" x="388.143" y="211.361" color-interpolation-filters="sRGB" filterUnits="userSpaceOnUse"><feFlood flood-opacity="0" result="BackgroundImageFix"/><feColorMatrix in="SourceAlpha" result="hardAlpha" values="0 0 0 0 0 0 0 0 0 0 0 0 0 0 0 0 0 0 127 0"/><feMorphology in="SourceAlpha" radius=".954" result="effect1_dropShadow_367_3384"/><feOffset dx="9.539" dy="14.309"/><feGaussianBlur stdDeviation="33.865"/><feComposite in2="hardAlpha" operator="out"/><feColorMatrix values="0 0 0 0 0 0 0 0 0 0 0 0 0 0 0 0 0 0 0.1 0"/><feBlend in2="BackgroundImageFix" mode="multiply" result="effect1_dropShadow_367_3384"/><feColorMatrix in="SourceAlpha" result="hardAlpha" values="0 0 0 0 0 0 0 0 0 0 0 0 0 0 0 0 0 0 127 0"/><feMorphology in="SourceAlpha" radius=".954" result="effect2_dropShadow_367_3384"/><feOffset dx="2" dy="2"/><feGaussianBlur stdDeviation="3"/><feComposite in2="hardAlpha" operator="out"/><feColorMatrix values="0 0 0 0 0 0 0 0 0 0 0 0 0 0 0 0 0 0 0.1 0"/><feBlend in2="effect1_dropShadow_367_3384" mode="multiply" result="effect2_dropShadow_367_3384"/><feBlend in="SourceGraphic" in2="effect2_dropShadow_367_3384" result="shape"/></filter><filter id="h" width="40.054" height="38.44" x="296.52" y="319.4" color-interpolation-filters="sRGB" filterUnits="userSpaceOnUse"><feFlood flood-opacity="0" result="BackgroundImageFix"/><feColorMatrix in="SourceAlpha" result="hardAlpha" values="0 0 0 0 0 0 0 0 0 0 0 0 0 0 0 0 0 0 127 0"/><feMorphology in="SourceAlpha" radius=".954" result="effect1_dropShadow_367_3384"/><feOffset dx="2" dy="2"/><feGaussianBlur stdDeviation="3"/><feComposite in2="hardAlpha" operator="out"/><feColorMatrix values="0 0 0 0 0 0 0 0 0 0 0 0 0 0 0 0 0 0 0.1 0"/><feBlend in2="BackgroundImageFix" mode="multiply" result="effect1_dropShadow_367_3384"/><feBlend in="SourceGraphic" in2="effect1_dropShadow_367_3384" result="shape"/></filter><filter id="i" width="450.361" height="263.836" x=".764" y="59.534" color-interpolation-filters="sRGB" filterUnits="userSpaceOnUse"><feFlood flood-opacity="0" result="BackgroundImageFix"/><feColorMatrix in="SourceAlpha" result="hardAlpha" values="0 0 0 0 0 0 0 0 0 0 0 0 0 0 0 0 0 0 127 0"/><feMorphology in="SourceAlpha" radius=".954" result="effect1_dropShadow_367_3384"/><feOffset dx="9.539" dy="14.309"/><feGaussianBlur stdDeviation="33.865"/><feComposite in2="hardAlpha" operator="out"/><feColorMatrix values="0 0 0 0 0 0 0 0 0 0 0 0 0 0 0 0 0 0 0.18 0"/><feBlend in2="BackgroundImageFix" mode="multiply" result="effect1_dropShadow_367_3384"/><feBlend in="SourceGraphic" in2="effect1_dropShadow_367_3384" result="shape"/></filter><filter id="j" width="40.054" height="38.44" x="208.134" y="121.254" color-interpolation-filters="sRGB" filterUnits="userSpaceOnUse"><feFlood flood-opacity="0" result="BackgroundImageFix"/><feColorMatrix in="SourceAlpha" result="hardAlpha" values="0 0 0 0 0 0 0 0 0 0 0 0 0 0 0 0 0 0 127 0"/><feMorphology in="SourceAlpha" radius=".954" result="effect1_dropShadow_367_3384"/><feOffset dx="2" dy="2"/><feGaussianBlur stdDeviation="3"/><feComposite in2="hardAlpha" operator="out"/><feColorMatrix values="0 0 0 0 0 0 0 0 0 0 0 0 0 0 0 0 0 0 0.1 0"/><feBlend in2="BackgroundImageFix" mode="multiply" result="effect1_dropShadow_367_3384"/><feBlend in="SourceGraphic" in2="effect1_dropShadow_367_3384" result="shape"/></filter><filter id="k" width="45.535" height="53.142" x="346.929" y="189.984" color-interpolation-filters="sRGB" filterUnits="userSpaceOnUse"><feFlood flood-opacity="0" result="BackgroundImageFix"/><feColorMatrix in="SourceAlpha" result="hardAlpha" values="0 0 0 0 0 0 0 0 0 0 0 0 0 0 0 0 0 0 127 0"/><feMorphology in="SourceAlpha" radius=".954" result="effect1_dropShadow_367_3384"/><feOffset dx="-4" dy="5"/><feGaussianBlur stdDeviation="3"/><feComposite in2="hardAlpha" operator="out"/><feColorMatrix values="0 0 0 0 0 0 0 0 0 0 0 0 0 0 0 0 0 0 0.2 0"/><feBlend in2="BackgroundImageFix" mode="multiply" result="effect1_dropShadow_367_3384"/><feBlend in="SourceGraphic" in2="effect1_dropShadow_367_3384" result="shape"/></filter><filter id="l" width="214.881" height="233.133" x="155.764" y="331.534" color-interpolation-filters="sRGB" filterUnits="userSpaceOnUse"><feFlood flood-opacity="0" result="BackgroundImageFix"/><feColorMatrix in="SourceAlpha" result="hardAlpha" values="0 0 0 0 0 0 0 0 0 0 0 0 0 0 0 0 0 0 127 0"/><feMorphology in="SourceAlpha" radius=".954" result="effect1_dropShadow_367_3384"/><feOffset dx="9.539" dy="14.309"/><feGaussianBlur stdDeviation="33.865"/><feComposite in2="hardAlpha" operator="out"/><feColorMatrix values="0 0 0 0 0 0 0 0 0 0 0 0 0 0 0 0 0 0 0.18 0"/><feBlend in2="BackgroundImageFix" mode="multiply" result="effect1_dropShadow_367_3384"/><feBlend in="SourceGraphic" in2="effect1_dropShadow_367_3384" result="shape"/></filter></defs></svg>