<svg xmlns="http://www.w3.org/2000/svg" width="546" height="602" fill="none"><g filter="url(#a)"><path fill="#fff" d="M144 170.625c-8.2 0-16.063-3.227-21.861-8.97A30.48 30.48 0 0 1 113.083 140a30.48 30.48 0 0 1 9.056-21.655c5.798-5.743 13.661-8.97 21.861-8.97 8.2 0 16.063 3.227 21.861 8.97A30.48 30.48 0 0 1 174.917 140a30.48 30.48 0 0 1-9.056 21.655c-5.798 5.743-13.661 8.97-21.861 8.97Zm65.632-22.137c.353-2.8.618-5.6.618-8.488s-.265-5.775-.618-8.75l18.638-14.263c1.678-1.312 2.12-3.675 1.06-5.6l-17.667-30.275c-1.06-1.924-3.445-2.712-5.388-1.924l-21.995 8.75c-4.593-3.413-9.363-6.388-14.928-8.576l-3.269-23.187c-.353-2.1-2.208-3.675-4.416-3.675h-35.334c-2.208 0-4.063 1.575-4.416 3.675l-3.269 23.188c-5.565 2.187-10.335 5.162-14.928 8.575l-21.995-8.75c-1.943-.788-4.328 0-5.388 1.924L58.67 111.387c-1.148 1.925-.618 4.288 1.06 5.6l18.638 14.263c-.353 2.975-.618 5.862-.618 8.75s.265 5.688.618 8.488L59.73 163.013c-1.678 1.312-2.208 3.675-1.06 5.6l17.667 30.274c1.06 1.925 3.445 2.626 5.388 1.926l21.995-8.838c4.593 3.5 9.363 6.475 14.928 8.663l3.269 23.187c.353 2.1 2.208 3.675 4.416 3.675h35.334c2.208 0 4.063-1.575 4.416-3.675l3.269-23.187c5.565-2.275 10.335-5.163 14.928-8.663l21.995 8.838c1.943.7 4.328-.001 5.388-1.926l17.667-30.274c1.06-1.925.618-4.288-1.06-5.6l-18.638-14.525Z"/></g><g filter="url(#b)"><path fill="#fff" d="M323 463.625c-8.2 0-16.063-3.227-21.861-8.97A30.48 30.48 0 0 1 292.083 433a30.48 30.48 0 0 1 9.056-21.655c5.798-5.743 13.661-8.97 21.861-8.97 8.2 0 16.063 3.227 21.861 8.97A30.48 30.48 0 0 1 353.917 433a30.48 30.48 0 0 1-9.056 21.655c-5.798 5.743-13.661 8.97-21.861 8.97Zm65.632-22.137c.353-2.8.618-5.6.618-8.488s-.265-5.775-.618-8.75l18.638-14.263c1.678-1.312 2.12-3.675 1.06-5.6l-17.667-30.275c-1.06-1.925-3.445-2.712-5.388-1.924l-21.995 8.75c-4.593-3.413-9.363-6.388-14.928-8.575l-3.269-23.188c-.353-2.1-2.208-3.675-4.416-3.675h-35.334c-2.208 0-4.063 1.575-4.416 3.675l-3.269 23.188c-5.565 2.187-10.335 5.162-14.928 8.575l-21.995-8.75c-1.943-.788-4.328-.001-5.388 1.924l-17.667 30.275c-1.148 1.925-.618 4.288 1.06 5.6l18.638 14.263c-.353 2.975-.618 5.862-.618 8.75s.265 5.688.618 8.488l-18.638 14.525c-1.678 1.312-2.208 3.675-1.06 5.6l17.667 30.274c1.06 1.925 3.445 2.626 5.388 1.926l21.995-8.838c4.593 3.5 9.363 6.475 14.928 8.663l3.269 23.187c.353 2.1 2.208 3.675 4.416 3.675h35.334c2.208 0 4.063-1.575 4.416-3.675l3.269-23.187c5.565-2.275 10.335-5.163 14.928-8.663l21.995 8.838c1.943.7 4.328-.001 5.388-1.926l17.667-30.274c1.06-1.925.618-4.288-1.06-5.6l-18.638-14.525Z"/></g><g filter="url(#c)"><path fill="#00A0DC" d="M261 300.625c-8.2 0-16.063-3.227-21.861-8.97A30.48 30.48 0 0 1 230.083 270a30.48 30.48 0 0 1 9.056-21.655c5.798-5.743 13.661-8.97 21.861-8.97 8.2 0 16.063 3.227 21.861 8.97A30.48 30.48 0 0 1 291.917 270a30.48 30.48 0 0 1-9.056 21.655c-5.798 5.743-13.661 8.97-21.861 8.97Zm65.632-22.137c.353-2.8.618-5.6.618-8.488s-.265-5.775-.618-8.75l18.638-14.263c1.678-1.312 2.12-3.675 1.06-5.6l-17.667-30.275c-1.06-1.925-3.445-2.712-5.388-1.924l-21.995 8.75c-4.593-3.413-9.363-6.388-14.928-8.575l-3.269-23.188c-.353-2.1-2.208-3.675-4.416-3.675h-35.334c-2.208 0-4.063 1.575-4.416 3.675l-3.269 23.188c-5.565 2.187-10.335 5.162-14.928 8.575l-21.995-8.75c-1.943-.788-4.328-.001-5.388 1.924l-17.667 30.275c-1.148 1.925-.618 4.288 1.06 5.6l18.638 14.263c-.353 2.975-.618 5.862-.618 8.75s.265 5.688.618 8.488l-18.638 14.525c-1.678 1.312-2.208 3.675-1.06 5.6l17.667 30.274c1.06 1.925 3.445 2.626 5.388 1.926l21.995-8.838c4.593 3.5 9.363 6.475 14.928 8.663l3.269 23.187c.353 2.1 2.208 3.675 4.416 3.675h35.334c2.208 0 4.063-1.575 4.416-3.675l3.269-23.187c5.565-2.275 10.335-5.163 14.928-8.663l21.995 8.838c1.943.7 4.328-.001 5.388-1.926l17.667-30.274c1.06-1.925.618-4.288-1.06-5.6l-18.638-14.525Z"/></g><g filter="url(#d)"><path fill="#00A0DC" d="M383 170.625c-8.2 0-16.063-3.227-21.861-8.97A30.48 30.48 0 0 1 352.083 140a30.48 30.48 0 0 1 9.056-21.655c5.798-5.743 13.661-8.97 21.861-8.97 8.2 0 16.063 3.227 21.861 8.97A30.48 30.48 0 0 1 413.917 140a30.48 30.48 0 0 1-9.056 21.655c-5.798 5.743-13.661 8.97-21.861 8.97Zm65.632-22.137c.353-2.8.618-5.6.618-8.488s-.265-5.775-.618-8.75l18.638-14.263c1.678-1.312 2.12-3.675 1.06-5.6l-17.667-30.275c-1.06-1.924-3.445-2.712-5.388-1.924l-21.995 8.75c-4.593-3.413-9.363-6.388-14.928-8.576l-3.269-23.187c-.353-2.1-2.208-3.675-4.416-3.675h-35.334c-2.208 0-4.063 1.575-4.416 3.675l-3.269 23.188c-5.565 2.187-10.335 5.162-14.928 8.575l-21.995-8.75c-1.943-.788-4.328 0-5.388 1.924l-17.667 30.275c-1.148 1.925-.618 4.288 1.06 5.6l18.638 14.263c-.353 2.975-.618 5.862-.618 8.75s.265 5.688.618 8.488l-18.638 14.525c-1.678 1.312-2.208 3.675-1.06 5.6l17.667 30.274c1.06 1.925 3.445 2.626 5.388 1.926l21.995-8.838c4.593 3.5 9.363 6.475 14.928 8.663l3.269 23.187c.353 2.1 2.208 3.675 4.416 3.675h35.334c2.208 0 4.063-1.575 4.416-3.675l3.269-23.187c5.565-2.275 10.335-5.163 14.928-8.663l21.995 8.838c1.943.7 4.328-.001 5.388-1.926l17.667-30.274c1.06-1.925.618-4.288-1.06-5.6l-18.638-14.525Z"/></g><defs><filter id="a" width="305.396" height="308.55" x=".822" y=".034" color-interpolation-filters="sRGB" filterUnits="userSpaceOnUse"><feFlood flood-opacity="0" result="BackgroundImageFix"/><feColorMatrix in="SourceAlpha" result="hardAlpha" values="0 0 0 0 0 0 0 0 0 0 0 0 0 0 0 0 0 0 127 0"/><feMorphology in="SourceAlpha" radius=".954" result="effect1_dropShadow_368_3559"/><feOffset dx="9.539" dy="14.309"/><feGaussianBlur stdDeviation="33.865"/><feComposite in2="hardAlpha" operator="out"/><feColorMatrix values="0 0 0 0 0 0 0 0 0 0 0 0 0 0 0 0 0 0 0.18 0"/><feBlend in2="BackgroundImageFix" mode="multiply" result="effect1_dropShadow_368_3559"/><feBlend in="SourceGraphic" in2="effect1_dropShadow_368_3559" result="shape"/></filter><filter id="b" width="305.396" height="308.55" x="179.822" y="293.034" color-interpolation-filters="sRGB" filterUnits="userSpaceOnUse"><feFlood flood-opacity="0" result="BackgroundImageFix"/><feColorMatrix in="SourceAlpha" result="hardAlpha" values="0 0 0 0 0 0 0 0 0 0 0 0 0 0 0 0 0 0 127 0"/><feMorphology in="SourceAlpha" radius=".954" result="effect1_dropShadow_368_3559"/><feOffset dx="9.539" dy="14.309"/><feGaussianBlur stdDeviation="33.865"/><feComposite in2="hardAlpha" operator="out"/><feColorMatrix values="0 0 0 0 0 0 0 0 0 0 0 0 0 0 0 0 0 0 0.18 0"/><feBlend in2="BackgroundImageFix" mode="multiply" result="effect1_dropShadow_368_3559"/><feBlend in="SourceGraphic" in2="effect1_dropShadow_368_3559" result="shape"/></filter><filter id="c" width="305.396" height="308.55" x="117.822" y="130.034" color-interpolation-filters="sRGB" filterUnits="userSpaceOnUse"><feFlood flood-opacity="0" result="BackgroundImageFix"/><feColorMatrix in="SourceAlpha" result="hardAlpha" values="0 0 0 0 0 0 0 0 0 0 0 0 0 0 0 0 0 0 127 0"/><feMorphology in="SourceAlpha" radius=".954" result="effect1_dropShadow_368_3559"/><feOffset dx="9.539" dy="14.309"/><feGaussianBlur stdDeviation="33.865"/><feComposite in2="hardAlpha" operator="out"/><feColorMatrix values="0 0 0 0 0 0 0 0 0 0 0 0 0 0 0 0 0 0 0.18 0"/><feBlend in2="BackgroundImageFix" mode="multiply" result="effect1_dropShadow_368_3559"/><feBlend in="SourceGraphic" in2="effect1_dropShadow_368_3559" result="shape"/></filter><filter id="d" width="305.396" height="308.55" x="239.822" y=".034" color-interpolation-filters="sRGB" filterUnits="userSpaceOnUse"><feFlood flood-opacity="0" result="BackgroundImageFix"/><feColorMatrix in="SourceAlpha" result="hardAlpha" values="0 0 0 0 0 0 0 0 0 0 0 0 0 0 0 0 0 0 127 0"/><feMorphology in="SourceAlpha" radius=".954" result="effect1_dropShadow_368_3559"/><feOffset dx="9.539" dy="14.309"/><feGaussianBlur stdDeviation="33.865"/><feComposite in2="hardAlpha" operator="out"/><feColorMatrix values="0 0 0 0 0 0 0 0 0 0 0 0 0 0 0 0 0 0 0.18 0"/><feBlend in2="BackgroundImageFix" mode="multiply" result="effect1_dropShadow_368_3559"/><feBlend in="SourceGraphic" in2="effect1_dropShadow_368_3559" result="shape"/></filter></defs></svg>